<?xml version="1.0" standalone="no"?>
<svg viewBox="0 0 200 200" xmlns="http://www.w3.org/2000/svg">
  <path fill="#FF0066" d="M40.7,-71.7C53.7,-63,65.9,-54.1,70.3,-42.1C74.8,-30.1,71.4,-15,70,-0.8C68.6,13.4,69.2,26.8,64.5,38.4C59.8,49.9,49.9,59.5,38.3,69.2C26.6,78.8,13.3,88.5,0.6,87.4C-12.1,86.4,-24.2,74.7,-35.5,64.9C-46.8,55,-57.3,47.1,-65.9,36.6C-74.4,26.1,-81.2,13,-79.2,1.1C-77.3,-10.8,-66.6,-21.6,-58.3,-32.5C-50,-43.4,-43.9,-54.5,-34.6,-65.3C-25.2,-76.1,-12.6,-86.6,0.6,-87.7C13.8,-88.7,27.7,-80.3,40.7,-71.7Z" transform="translate(100 100)" />
</svg>
