<svg width="342" height="216" viewBox="0 0 342 216" fill="none" xmlns="http://www.w3.org/2000/svg">
<path fill-rule="evenodd" clip-rule="evenodd" d="M126.499 0.585565C126.101 0.445028 125.646 0.472877 125.251 0.700554L1.25072 72.2005C0.786212 72.4684 0.5 72.9638 0.5 73.5C0.5 74.0362 0.786212 74.5316 1.25072 74.7995L125.251 146.299C125.968 146.713 126.886 146.467 127.299 145.749C127.358 145.648 127.403 145.543 127.436 145.435C127.774 145.333 128.074 145.111 128.271 144.797L216.503 4.02165L336.997 73.5L215.251 143.701C214.533 144.114 214.287 145.032 214.701 145.749C215.114 146.467 216.032 146.713 216.749 146.299L340.749 74.7995C341.214 74.5316 341.5 74.0362 341.5 73.5C341.5 72.9638 341.214 72.4684 340.749 72.2006L216.749 0.700554C216.05 0.297471 215.158 0.519658 214.729 1.2034L128.5 138.782V2.00001C128.5 1.17158 127.828 0.500007 127 0.500007C126.824 0.500007 126.656 0.530159 126.499 0.585565ZM125.5 142.98V4.01981L5.00288 73.5L125.5 142.98Z" fill="white"/>
<path d="M89.664 186.104H82.416L80.928 191H78.648L82.896 177.176C83.152 176.344 83.416 175.696 83.688 175.232C83.96 174.768 84.28 174.44 84.648 174.248C85.016 174.04 85.472 173.936 86.016 173.936C86.816 173.936 87.448 174.176 87.912 174.656C88.376 175.12 88.792 175.96 89.16 177.176L93.432 191H91.128L89.664 186.104ZM89.136 184.352L86.976 177.2C86.848 176.768 86.712 176.472 86.568 176.312C86.424 176.136 86.24 176.048 86.016 176.048C85.808 176.048 85.632 176.136 85.488 176.312C85.36 176.472 85.232 176.768 85.104 177.2L82.944 184.352H89.136ZM109.487 174.2V188.024C109.487 189.016 109.279 189.76 108.863 190.256C108.463 190.752 107.823 191 106.943 191H105.335L98.4227 177.704V191H96.2627V174.2H98.9027L106.511 189.032H106.655C106.911 189.032 107.087 188.936 107.183 188.744C107.279 188.552 107.327 188.2 107.327 187.688V174.2H109.487ZM119.702 191.264C117.494 191.264 115.806 190.744 114.638 189.704C113.47 188.664 112.886 187.144 112.886 185.144V180.032C112.886 178.016 113.462 176.496 114.614 175.472C115.782 174.448 117.494 173.936 119.75 173.936C121.19 173.936 122.414 174.152 123.422 174.584C124.43 175.016 125.262 175.672 125.918 176.552L124.238 177.824C123.694 177.12 123.062 176.6 122.342 176.264C121.638 175.912 120.766 175.736 119.726 175.736C116.686 175.736 115.166 177.168 115.166 180.032V185.144C115.166 188.024 116.686 189.464 119.726 189.464C121.054 189.464 122.094 189.216 122.846 188.72C123.614 188.224 123.998 187.536 123.998 186.656V185.384C123.998 184.744 123.83 184.256 123.494 183.92C123.174 183.584 122.694 183.416 122.054 183.416H119.222V181.616H122.63C123.846 181.616 124.75 181.904 125.342 182.48C125.934 183.056 126.23 183.936 126.23 185.12V186.8C126.23 188.176 125.638 189.264 124.454 190.064C123.286 190.864 121.702 191.264 119.702 191.264ZM134.534 191C132.582 191 131.15 190.576 130.238 189.728C129.326 188.88 128.87 187.608 128.87 185.912V179.288C128.87 177.592 129.326 176.32 130.238 175.472C131.15 174.624 132.582 174.2 134.534 174.2H140.27V176H134.534C133.366 176 132.51 176.272 131.966 176.816C131.422 177.344 131.15 178.168 131.15 179.288V181.688H139.094V183.512H131.15V185.912C131.15 187.032 131.422 187.864 131.966 188.408C132.51 188.936 133.366 189.2 134.534 189.2H140.366V191H134.534ZM148.503 191C146.599 191 145.199 190.576 144.303 189.728C143.423 188.88 142.983 187.608 142.983 185.912V174.2H145.263V185.912C145.263 187.032 145.527 187.864 146.055 188.408C146.583 188.936 147.399 189.2 148.503 189.2H153.903V191H148.503ZM168.652 191.264C167.884 191.264 167.26 191.024 166.78 190.544C166.316 190.048 165.916 189.208 165.58 188.024L161.5 174.2H163.78L167.764 188C167.876 188.4 167.996 188.696 168.124 188.888C168.268 189.064 168.444 189.152 168.652 189.152C168.86 189.152 169.028 189.064 169.156 188.888C169.284 188.712 169.412 188.416 169.54 188L173.524 174.2H175.828L171.748 188.024C171.396 189.208 170.98 190.048 170.5 190.544C170.036 191.024 169.42 191.264 168.652 191.264ZM183.12 191C181.168 191 179.736 190.576 178.824 189.728C177.912 188.88 177.456 187.608 177.456 185.912V179.288C177.456 177.592 177.912 176.32 178.824 175.472C179.736 174.624 181.168 174.2 183.12 174.2H188.856V176H183.12C181.952 176 181.096 176.272 180.552 176.816C180.008 177.344 179.736 178.168 179.736 179.288V181.688H187.68V183.512H179.736V185.912C179.736 187.032 180.008 187.864 180.552 188.408C181.096 188.936 181.952 189.2 183.12 189.2H188.952V191H183.12ZM197.089 191C195.185 191 193.785 190.576 192.889 189.728C192.009 188.88 191.569 187.608 191.569 185.912V174.2H193.849V185.912C193.849 187.032 194.113 187.864 194.641 188.408C195.169 188.936 195.985 189.2 197.089 189.2H202.489V191H197.089ZM214.891 186.104H207.643L206.155 191H203.875L208.123 177.176C208.379 176.344 208.643 175.696 208.915 175.232C209.187 174.768 209.507 174.44 209.875 174.248C210.243 174.04 210.699 173.936 211.243 173.936C212.043 173.936 212.675 174.176 213.139 174.656C213.603 175.12 214.019 175.96 214.387 177.176L218.659 191H216.355L214.891 186.104ZM214.363 184.352L212.203 177.2C212.075 176.768 211.939 176.472 211.795 176.312C211.651 176.136 211.467 176.048 211.243 176.048C211.035 176.048 210.859 176.136 210.715 176.312C210.587 176.472 210.459 176.768 210.331 177.2L208.171 184.352H214.363ZM225.664 191.264C224.128 191.264 222.888 191.032 221.944 190.568C221.016 190.104 220.144 189.336 219.328 188.264L220.864 186.944C221.536 187.872 222.224 188.528 222.928 188.912C223.632 189.28 224.52 189.464 225.592 189.464C227.016 189.464 228.096 189.216 228.832 188.72C229.584 188.208 229.96 187.464 229.96 186.488C229.96 185.928 229.808 185.472 229.504 185.12C229.216 184.768 228.704 184.464 227.968 184.208C227.232 183.936 226.144 183.656 224.704 183.368C223.088 183.048 221.896 182.504 221.128 181.736C220.36 180.968 219.976 179.952 219.976 178.688C219.976 177.216 220.504 176.056 221.56 175.208C222.632 174.36 224.096 173.936 225.952 173.936C228.688 173.936 230.624 174.84 231.76 176.648L230.224 177.896C229.664 177.176 229.04 176.64 228.352 176.288C227.68 175.92 226.872 175.736 225.928 175.736C224.776 175.736 223.872 176 223.216 176.528C222.576 177.04 222.256 177.744 222.256 178.64C222.256 179.44 222.576 180.072 223.216 180.536C223.856 180.984 224.824 181.336 226.12 181.592C227.608 181.896 228.784 182.232 229.648 182.6C230.512 182.968 231.16 183.456 231.592 184.064C232.024 184.672 232.24 185.472 232.24 186.464C232.24 188.048 231.68 189.248 230.56 190.064C229.456 190.864 227.824 191.264 225.664 191.264ZM241.601 191.264C239.377 191.264 237.681 190.752 236.513 189.728C235.345 188.688 234.761 187.16 234.761 185.144V180.032C234.761 178.048 235.337 176.536 236.489 175.496C237.641 174.456 239.297 173.936 241.457 173.936C242.913 173.936 244.137 174.168 245.129 174.632C246.121 175.096 246.929 175.808 247.553 176.768L245.921 177.92C245.377 177.168 244.761 176.616 244.073 176.264C243.385 175.912 242.529 175.736 241.505 175.736C238.529 175.736 237.041 177.168 237.041 180.032V185.144C237.041 188.024 238.561 189.464 241.601 189.464C242.689 189.464 243.585 189.28 244.289 188.912C244.993 188.544 245.609 187.968 246.137 187.184L247.745 188.408C247.009 189.416 246.169 190.144 245.225 190.592C244.297 191.04 243.089 191.264 241.601 191.264ZM256.644 191.264C254.484 191.264 252.828 190.744 251.676 189.704C250.54 188.664 249.972 187.144 249.972 185.144V180.056C249.972 178.056 250.54 176.536 251.676 175.496C252.828 174.456 254.484 173.936 256.644 173.936C258.82 173.936 260.476 174.456 261.612 175.496C262.764 176.536 263.34 178.056 263.34 180.056V185.144C263.34 187.144 262.764 188.664 261.612 189.704C260.476 190.744 258.82 191.264 256.644 191.264ZM256.644 189.464C258.068 189.464 259.156 189.096 259.908 188.36C260.676 187.608 261.06 186.536 261.06 185.144V180.056C261.06 178.664 260.676 177.6 259.908 176.864C259.156 176.112 258.068 175.736 256.644 175.736C255.236 175.736 254.148 176.112 253.38 176.864C252.628 177.6 252.252 178.664 252.252 180.056V185.144C252.252 186.536 252.628 187.608 253.38 188.36C254.148 189.096 255.236 189.464 256.644 189.464Z" fill="white"/>
<path d="M131.6 200.8L129.04 212H128.672C128.235 212 127.888 211.915 127.632 211.744C127.376 211.573 127.189 211.291 127.072 210.896L125.088 204.64L123.104 210.896C122.987 211.28 122.795 211.563 122.528 211.744C122.272 211.915 121.925 212 121.488 212H121.136L118.576 200.8H119.392L121.76 211.248C122.101 211.195 122.325 210.987 122.432 210.624L125.088 202.48L127.728 210.624C127.792 210.816 127.877 210.965 127.984 211.072C128.091 211.168 128.229 211.227 128.4 211.248L130.768 200.8H131.6ZM135.772 211.52C136.742 211.52 137.521 211.211 138.108 210.592L138.604 211.056C138.273 211.429 137.873 211.712 137.404 211.904C136.934 212.085 136.38 212.176 135.74 212.176C134.694 212.176 133.894 211.947 133.34 211.488C132.796 211.019 132.524 210.341 132.524 209.456V206.976C132.524 206.155 132.796 205.509 133.34 205.04C133.884 204.56 134.63 204.32 135.58 204.32C136.582 204.32 137.345 204.565 137.868 205.056C138.401 205.547 138.668 206.251 138.668 207.168C138.668 207.723 138.556 208.107 138.332 208.32C138.118 208.523 137.718 208.624 137.132 208.624H133.292V209.456C133.292 210.149 133.494 210.667 133.9 211.008C134.305 211.349 134.929 211.52 135.772 211.52ZM135.58 204.944C134.876 204.944 134.316 205.131 133.9 205.504C133.494 205.877 133.292 206.379 133.292 207.008V208.032H136.908C137.281 208.032 137.537 207.968 137.676 207.84C137.814 207.701 137.884 207.456 137.884 207.104C137.884 206.411 137.681 205.877 137.276 205.504C136.881 205.131 136.316 204.944 135.58 204.944ZM144.05 212.176C143.474 212.176 142.962 212.064 142.514 211.84C142.076 211.605 141.724 211.275 141.458 210.848V212H140.69V201.776C140.69 201.605 140.663 201.467 140.61 201.36C140.556 201.253 140.444 201.131 140.274 200.992L140.77 200.528C141.026 200.677 141.202 200.848 141.298 201.04C141.404 201.232 141.458 201.499 141.458 201.84V205.632C141.724 205.205 142.076 204.88 142.514 204.656C142.962 204.421 143.474 204.304 144.05 204.304C144.7 204.304 145.271 204.459 145.762 204.768C146.263 205.067 146.647 205.493 146.914 206.048C147.191 206.603 147.33 207.248 147.33 207.984V208.496C147.33 209.221 147.191 209.867 146.914 210.432C146.647 210.987 146.263 211.419 145.762 211.728C145.271 212.027 144.7 212.176 144.05 212.176ZM143.954 211.52C144.732 211.52 145.356 211.248 145.826 210.704C146.306 210.149 146.546 209.413 146.546 208.496V207.984C146.546 207.067 146.306 206.331 145.826 205.776C145.356 205.221 144.732 204.944 143.954 204.944C143.282 204.944 142.748 205.104 142.354 205.424C141.959 205.733 141.66 206.181 141.458 206.768V209.696C141.66 210.293 141.959 210.747 142.354 211.056C142.748 211.365 143.282 211.52 143.954 211.52ZM153.584 200.8H157.504C158.656 200.8 159.568 200.981 160.24 201.344C160.922 201.707 161.413 202.293 161.712 203.104C162.021 203.915 162.176 205.013 162.176 206.4C162.176 207.787 162.021 208.885 161.712 209.696C161.413 210.507 160.928 211.093 160.256 211.456C159.584 211.819 158.666 212 157.504 212H153.584V200.8ZM157.504 211.312C158.453 211.312 159.205 211.152 159.76 210.832C160.314 210.512 160.714 210 160.96 209.296C161.216 208.581 161.344 207.616 161.344 206.4C161.344 205.195 161.216 204.235 160.96 203.52C160.714 202.805 160.314 202.288 159.76 201.968C159.205 201.648 158.453 201.488 157.504 201.488H154.416V211.312H157.504ZM167.428 211.52C168.399 211.52 169.177 211.211 169.764 210.592L170.26 211.056C169.929 211.429 169.529 211.712 169.06 211.904C168.591 212.085 168.036 212.176 167.396 212.176C166.351 212.176 165.551 211.947 164.996 211.488C164.452 211.019 164.18 210.341 164.18 209.456V206.976C164.18 206.155 164.452 205.509 164.996 205.04C165.54 204.56 166.287 204.32 167.236 204.32C168.239 204.32 169.001 204.565 169.524 205.056C170.057 205.547 170.324 206.251 170.324 207.168C170.324 207.723 170.212 208.107 169.988 208.32C169.775 208.523 169.375 208.624 168.788 208.624H164.948V209.456C164.948 210.149 165.151 210.667 165.556 211.008C165.961 211.349 166.585 211.52 167.428 211.52ZM167.236 204.944C166.532 204.944 165.972 205.131 165.556 205.504C165.151 205.877 164.948 206.379 164.948 207.008V208.032H168.564C168.937 208.032 169.193 207.968 169.332 207.84C169.471 207.701 169.54 207.456 169.54 207.104C169.54 206.411 169.337 205.877 168.932 205.504C168.537 205.131 167.972 204.944 167.236 204.944ZM174.554 212.176C174.298 212.176 174.09 212.123 173.93 212.016C173.77 211.92 173.626 211.749 173.498 211.504C173.37 211.259 173.237 210.901 173.098 210.432L171.29 204.48H172.042L173.834 210.4C173.973 210.88 174.085 211.189 174.17 211.328C174.266 211.456 174.389 211.52 174.538 211.52C174.698 211.52 174.821 211.451 174.906 211.312C174.991 211.173 175.109 210.869 175.258 210.4L177.05 204.48H177.802L176.01 210.432C175.871 210.901 175.738 211.259 175.61 211.504C175.482 211.749 175.338 211.92 175.178 212.016C175.018 212.123 174.81 212.176 174.554 212.176ZM182.272 211.52C183.242 211.52 184.021 211.211 184.608 210.592L185.104 211.056C184.773 211.429 184.373 211.712 183.904 211.904C183.434 212.085 182.88 212.176 182.24 212.176C181.194 212.176 180.394 211.947 179.84 211.488C179.296 211.019 179.024 210.341 179.024 209.456V206.976C179.024 206.155 179.296 205.509 179.84 205.04C180.384 204.56 181.13 204.32 182.08 204.32C183.082 204.32 183.845 204.565 184.368 205.056C184.901 205.547 185.168 206.251 185.168 207.168C185.168 207.723 185.056 208.107 184.832 208.32C184.618 208.523 184.218 208.624 183.632 208.624H179.792V209.456C179.792 210.149 179.994 210.667 180.4 211.008C180.805 211.349 181.429 211.52 182.272 211.52ZM182.08 204.944C181.376 204.944 180.816 205.131 180.4 205.504C179.994 205.877 179.792 206.379 179.792 207.008V208.032H183.408C183.781 208.032 184.037 207.968 184.176 207.84C184.314 207.701 184.384 207.456 184.384 207.104C184.384 206.411 184.181 205.877 183.776 205.504C183.381 205.131 182.816 204.944 182.08 204.944ZM187.956 212.176C187.7 212.016 187.518 211.84 187.412 211.648C187.316 211.456 187.268 211.189 187.268 210.848V201.76C187.268 201.6 187.236 201.467 187.172 201.36C187.118 201.253 187.012 201.125 186.852 200.976L187.348 200.512C187.604 200.661 187.78 200.832 187.876 201.024C187.982 201.216 188.036 201.483 188.036 201.824V210.912C188.036 211.072 188.062 211.205 188.116 211.312C188.18 211.419 188.292 211.547 188.452 211.696L187.956 212.176ZM193.565 212.176C192.584 212.176 191.821 211.92 191.277 211.408C190.733 210.896 190.461 210.187 190.461 209.28V207.184C190.461 206.277 190.733 205.573 191.277 205.072C191.821 204.56 192.584 204.304 193.565 204.304C194.536 204.304 195.293 204.56 195.837 205.072C196.392 205.573 196.669 206.277 196.669 207.184V209.28C196.669 210.187 196.392 210.896 195.837 211.408C195.293 211.92 194.536 212.176 193.565 212.176ZM193.565 211.52C194.301 211.52 194.872 211.328 195.277 210.944C195.682 210.549 195.885 209.995 195.885 209.28V207.184C195.885 206.469 195.682 205.92 195.277 205.536C194.872 205.141 194.301 204.944 193.565 204.944C192.818 204.944 192.242 205.141 191.837 205.536C191.432 205.92 191.229 206.469 191.229 207.184V209.28C191.229 209.995 191.432 210.549 191.837 210.944C192.242 211.328 192.818 211.52 193.565 211.52ZM202.378 204.304C203.05 204.304 203.631 204.464 204.122 204.784C204.613 205.104 204.986 205.541 205.242 206.096C205.498 206.651 205.626 207.28 205.626 207.984V208.496C205.626 209.189 205.498 209.819 205.242 210.384C204.986 210.939 204.613 211.376 204.122 211.696C203.631 212.016 203.05 212.176 202.378 212.176C201.173 212.176 200.303 211.728 199.77 210.832V215.504H199.002V205.552C199.002 205.392 198.97 205.259 198.906 205.152C198.853 205.045 198.746 204.917 198.586 204.768L199.082 204.304C199.317 204.443 199.487 204.592 199.594 204.752C199.701 204.912 199.754 205.125 199.754 205.392C199.754 205.499 199.749 205.584 199.738 205.648C199.983 205.232 200.33 204.907 200.778 204.672C201.226 204.427 201.759 204.304 202.378 204.304ZM204.858 207.984C204.858 207.067 204.618 206.331 204.138 205.776C203.669 205.221 203.045 204.944 202.266 204.944C201.594 204.944 201.061 205.104 200.666 205.424C200.271 205.733 199.973 206.181 199.77 206.768V209.696C199.973 210.293 200.271 210.747 200.666 211.056C201.061 211.365 201.594 211.52 202.266 211.52C203.045 211.52 203.669 211.248 204.138 210.704C204.618 210.149 204.858 209.413 204.858 208.496V207.984ZM210.803 211.52C211.774 211.52 212.552 211.211 213.139 210.592L213.635 211.056C213.304 211.429 212.904 211.712 212.435 211.904C211.966 212.085 211.411 212.176 210.771 212.176C209.726 212.176 208.926 211.947 208.371 211.488C207.827 211.019 207.555 210.341 207.555 209.456V206.976C207.555 206.155 207.827 205.509 208.371 205.04C208.915 204.56 209.662 204.32 210.611 204.32C211.614 204.32 212.376 204.565 212.899 205.056C213.432 205.547 213.699 206.251 213.699 207.168C213.699 207.723 213.587 208.107 213.363 208.32C213.15 208.523 212.75 208.624 212.163 208.624H208.323V209.456C208.323 210.149 208.526 210.667 208.931 211.008C209.336 211.349 209.96 211.52 210.803 211.52ZM210.611 204.944C209.907 204.944 209.347 205.131 208.931 205.504C208.526 205.877 208.323 206.379 208.323 207.008V208.032H211.939C212.312 208.032 212.568 207.968 212.707 207.84C212.846 207.701 212.915 207.456 212.915 207.104C212.915 206.411 212.712 205.877 212.307 205.504C211.912 205.131 211.347 204.944 210.611 204.944ZM219.223 204.304C219.586 204.304 219.895 204.384 220.151 204.544L219.927 205.28C219.65 205.131 219.34 205.056 218.999 205.056C218.412 205.056 217.895 205.355 217.447 205.952C217.01 206.539 216.716 207.333 216.567 208.336V212H215.799V205.552C215.799 205.392 215.767 205.259 215.703 205.152C215.65 205.045 215.543 204.917 215.383 204.768L215.911 204.304C216.156 204.453 216.327 204.624 216.423 204.816C216.519 205.008 216.567 205.275 216.567 205.616V206.64C216.802 205.893 217.148 205.317 217.607 204.912C218.066 204.507 218.604 204.304 219.223 204.304Z" fill="white"/>
</svg>
