<svg xmlns="http://www.w3.org/2000/svg" xmlns:xlink="http://www.w3.org/1999/xlink" viewBox="0 0 1992.71 2339.15"><defs><style>.cls-1{fill:#9ca1af;}.cls-2{fill:#3d415b;}.cls-3{fill:#d0d5e2;}.cls-4{fill:#2b2e3d;}.cls-5{fill:#878aa0;}.cls-6{fill:#525575;}.cls-7{fill:#e2e4e9;}.cls-8{fill:#40c6c2;}.cls-9{fill:#040719;opacity:0.2;}.cls-10{fill:#83869b;}.cls-11{fill:#fffdff;}.cls-11,.cls-12{stroke:#40c6c2;}.cls-11,.cls-12,.cls-13,.cls-14{stroke-miterlimit:10;}.cls-11,.cls-13{stroke-width:3px;}.cls-12,.cls-13,.cls-14{fill:none;}.cls-12,.cls-14{stroke-width:10px;}.cls-13{stroke:#8d9ab2;}.cls-14{stroke:#fb9110;}.cls-15{fill:#c9cbd1;}.cls-16{fill:#8d9ab2;}.cls-17,.cls-28,.cls-30{fill:#fff;}.cls-18{fill:url(#linear-gradient);}.cls-19{fill:url(#linear-gradient-2);}.cls-20{fill:#efefef;}.cls-21{opacity:0.75;}.cls-22{fill:#aaadad;}.cls-23{fill:#fb9110;}.cls-24{fill:#fffaff;}.cls-25{fill:#606475;}.cls-26{fill:#707482;}.cls-27{fill:#4a4d5a;}.cls-28{opacity:0.42;}.cls-29{fill:url(#linear-gradient-3);}.cls-30{opacity:0.43;}.cls-31{fill:url(#linear-gradient-4);}.cls-32{fill:url(#linear-gradient-5);}.cls-33{fill:url(#linear-gradient-6);}.cls-34{fill:url(#linear-gradient-7);}</style><linearGradient id="linear-gradient" x1="226.01" y1="977.18" x2="521.68" y2="977.18" gradientTransform="matrix(-1, 0, 0, 1, 2218.71, 0)" gradientUnits="userSpaceOnUse"><stop offset="0" stop-color="#f35625"/><stop offset="1" stop-color="#f25227"/></linearGradient><linearGradient id="linear-gradient-2" x1="338.98" y1="860.91" x2="430.65" y2="1086.86" gradientTransform="matrix(-1, 0, 0, 1, 2218.71, 0)" gradientUnits="userSpaceOnUse"><stop offset="0" stop-color="#ffac06"/><stop offset="1" stop-color="#f25227"/></linearGradient><linearGradient id="linear-gradient-3" x1="2733.11" y1="1457.36" x2="2822.03" y2="1457.36" gradientTransform="translate(-2273.78)" gradientUnits="userSpaceOnUse"><stop offset="0" stop-color="#ffd9d9"/><stop offset="1" stop-color="#efb4b4"/></linearGradient><linearGradient id="linear-gradient-4" x1="1928.87" y1="1570.21" x2="1799.55" y2="1472.29" gradientTransform="matrix(-0.14, 0.99, 0.99, 0.14, -931.19, -534.9)" gradientUnits="userSpaceOnUse"><stop offset="0.02" stop-color="#a4a6b6"/><stop offset="1" stop-color="#e4e6eb"/></linearGradient><linearGradient id="linear-gradient-5" x1="2015.95" y1="1377.62" x2="1948.82" y2="1432.67" gradientTransform="matrix(-0.71, 0.71, 0.71, 0.71, 584.88, -797.81)" xlink:href="#linear-gradient-4"/><linearGradient id="linear-gradient-6" x1="1211.86" y1="2073.63" x2="1335.8" y2="2222.76" xlink:href="#linear-gradient-4"/><linearGradient id="linear-gradient-7" x1="1688.21" y1="1525.02" x2="1861.88" y2="1694.46" gradientTransform="matrix(-0.14, 0.99, 0.99, 0.14, -931.19, -534.9)" xlink:href="#linear-gradient-2"/></defs><g id="Capa_2" data-name="Capa 2"><g id="Layer_1" data-name="Layer 1"><polygon class="cls-1" points="1090.79 1468.69 748.89 1270.45 748.89 1321.16 1090.79 1519.4 1090.79 1468.69"/><polygon class="cls-2" points="1090.79 1469.26 1246.39 1357.67 1246.39 1408.38 1090.79 1519.97 1090.79 1469.26"/><polygon class="cls-3" points="1090.79 1469.26 748.89 1270.45 949.15 1184.64 1246.39 1357.81 1090.79 1469.26"/><path class="cls-4" d="M624.48,134.79v838.6A51.42,51.42,0,0,0,650,1017.78l911.13,569.59c21.76,12.67,78.61-26.36,78.61-51.51V714.54a59.1,59.1,0,0,0-29.27-50.91L662.3,113A25.17,25.17,0,0,0,624.48,134.79Z"/><path class="cls-5" d="M586.86,140.83,679,369.48,1179.4,909.82,1636.73,696a58.84,58.84,0,0,0-26.26-32.4L662.3,113C636.53,99.33,586.86,121.4,586.86,140.83Z"/><path class="cls-6" d="M621,132.28l948.15,550.57a59,59,0,0,1,29.29,50.95v821.28c0,25.15-27.27,40.83-49,28.17L608.65,1037a51.31,51.31,0,0,1-25.49-44.34V154A25.16,25.16,0,0,1,621,132.28Z"/><polygon class="cls-7" points="607.74 989.3 1573.84 1550.67 1573.84 740.12 607.74 178.74 607.74 989.3"/><polygon class="cls-8" points="1573.84 740.12 607.74 178.74 607.74 261.95 1573.84 823.33 1573.84 740.12"/><path class="cls-9" d="M12.23,1630.42l835.26,487.17a44.24,44.24,0,0,0,45.08-.37L1238,1908.86a18.61,18.61,0,0,0-.26-32L397.3,1386.69a38.36,38.36,0,0,0-39.07.32L12,1595.91A20.05,20.05,0,0,0,12.23,1630.42Z"/><path class="cls-10" d="M12.23,1553.42l835.26,487.17a44.22,44.22,0,0,0,45.08-.37L1238,1831.86c12.11-7.3,15.62-65,3.4-72.11L397.3,1309.69a38.36,38.36,0,0,0-39.07.32L7.94,1479.22C-5.11,1487.1-.95,1545.77,12.23,1553.42Z"/><path class="cls-6" d="M12.23,1510.55l835.26,487.17a44.24,44.24,0,0,0,45.08-.37L1238,1789a18.61,18.61,0,0,0-.26-32L397.3,1266.82a38.36,38.36,0,0,0-39.07.32L12,1476A20.05,20.05,0,0,0,12.23,1510.55Z"/><path class="cls-2" d="M1036,1718l28.22-17.07a3.15,3.15,0,0,1,3.18-.05l30.44,17.62a1.5,1.5,0,0,1,0,2.59l-28.14,17a3.64,3.64,0,0,1-3.68.05l-30-17.38A1.61,1.61,0,0,1,1036,1718Z"/><path class="cls-2" d="M1020.79,1709.5a3.63,3.63,0,0,1-3.67,0l-30-17.38a1.62,1.62,0,0,1,0-2.8l28.21-17.07a3.12,3.12,0,0,1,3.18,0l30.44,17.61a1.51,1.51,0,0,1,0,2.6Z"/><path class="cls-2" d="M971.87,1680.88a3.64,3.64,0,0,1-3.68,0l-30-17.38a1.61,1.61,0,0,1,0-2.79l28.22-17.07a3.15,3.15,0,0,1,3.18,0l30.44,17.62a1.5,1.5,0,0,1,0,2.59Z"/><path class="cls-2" d="M922.94,1652.27a3.63,3.63,0,0,1-3.67,0l-30-17.38a1.61,1.61,0,0,1,0-2.79l28.21-17.08a3.15,3.15,0,0,1,3.18,0l30.44,17.61a1.51,1.51,0,0,1,0,2.6Z"/><path class="cls-2" d="M874,1623.65a3.64,3.64,0,0,1-3.68,0l-30-17.37a1.62,1.62,0,0,1,0-2.8l28.22-17.07a3.12,3.12,0,0,1,3.18,0L902.14,1604a1.51,1.51,0,0,1,0,2.6Z"/><path class="cls-2" d="M825.09,1595a3.63,3.63,0,0,1-3.67,0l-30-17.37a1.63,1.63,0,0,1,0-2.8l28.21-17.07a3.15,3.15,0,0,1,3.18,0l30.44,17.62a1.5,1.5,0,0,1,0,2.59Z"/><path class="cls-2" d="M776.17,1566.42a3.58,3.58,0,0,1-3.67,0l-30-17.37a1.61,1.61,0,0,1,0-2.79l28.22-17.08a3.12,3.12,0,0,1,3.18,0l30.44,17.61a1.51,1.51,0,0,1,0,2.6Z"/><path class="cls-2" d="M727.24,1537.81a3.63,3.63,0,0,1-3.67,0l-30-17.37a1.63,1.63,0,0,1,0-2.8l28.21-17.07a3.14,3.14,0,0,1,3.19,0l30.43,17.61a1.5,1.5,0,0,1,0,2.59Z"/><path class="cls-2" d="M678.32,1509.2a3.6,3.6,0,0,1-3.67,0l-30-17.37a1.61,1.61,0,0,1,0-2.79L672.82,1472a3.12,3.12,0,0,1,3.18,0l30.44,17.61a1.51,1.51,0,0,1,0,2.6Z"/><path class="cls-2" d="M629.39,1480.58a3.6,3.6,0,0,1-3.67.05l-30-17.37a1.63,1.63,0,0,1,0-2.8l28.21-17.07a3.14,3.14,0,0,1,3.19,0L657.51,1461a1.5,1.5,0,0,1,0,2.59Z"/><path class="cls-2" d="M580.47,1452a3.63,3.63,0,0,1-3.67,0l-30-17.38a1.61,1.61,0,0,1,0-2.79L575,1414.78a3.12,3.12,0,0,1,3.18,0l30.44,17.62a1.5,1.5,0,0,1,0,2.59Z"/><path class="cls-2" d="M531.54,1423.35a3.6,3.6,0,0,1-3.67.05l-30-17.37a1.63,1.63,0,0,1,0-2.8L526,1386.16a3.14,3.14,0,0,1,3.19,0l30.43,17.61a1.5,1.5,0,0,1,0,2.59Z"/><path class="cls-2" d="M482.62,1394.74a3.63,3.63,0,0,1-3.67,0l-30-17.38a1.61,1.61,0,0,1,0-2.79l28.22-17.07a3.15,3.15,0,0,1,3.18,0l30.44,17.62a1.5,1.5,0,0,1,0,2.59Z"/><path class="cls-2" d="M433.69,1366.13a3.6,3.6,0,0,1-3.67,0l-30-17.37a1.62,1.62,0,0,1,0-2.79l28.21-17.08a3.17,3.17,0,0,1,3.19,0l30.43,17.61a1.5,1.5,0,0,1,0,2.59Z"/><path class="cls-2" d="M979.85,1751.81l28.21-17.07a3.14,3.14,0,0,1,3.19,0l30.43,17.61a1.5,1.5,0,0,1,0,2.59l-28.15,17a3.6,3.6,0,0,1-3.67,0l-30-17.37A1.63,1.63,0,0,1,979.85,1751.81Z"/><path class="cls-2" d="M962.32,1706.08l30.44,17.62a1.5,1.5,0,0,1,0,2.59l-28.14,17a3.63,3.63,0,0,1-3.67,0L931,1726a1.61,1.61,0,0,1,0-2.79l28.21-17.07A3.12,3.12,0,0,1,962.32,1706.08Z"/><path class="cls-2" d="M912,1714.75l-30-17.37a1.63,1.63,0,0,1,0-2.8l28.21-17.07a3.17,3.17,0,0,1,3.19,0l30.44,17.61a1.5,1.5,0,0,1,0,2.59l-28.14,17A3.62,3.62,0,0,1,912,1714.75Z"/><path class="cls-2" d="M864.47,1648.86l30.44,17.61a1.5,1.5,0,0,1,0,2.59l-28.14,17a3.63,3.63,0,0,1-3.67.05l-30-17.37a1.62,1.62,0,0,1,0-2.8l28.21-17.07A3.12,3.12,0,0,1,864.47,1648.86Z"/><path class="cls-2" d="M815.55,1620.24,846,1637.85a1.51,1.51,0,0,1,0,2.6l-28.14,17a3.64,3.64,0,0,1-3.68,0l-30-17.38a1.62,1.62,0,0,1,0-2.79l28.21-17.08A3.17,3.17,0,0,1,815.55,1620.24Z"/><path class="cls-2" d="M766.62,1591.63l30.44,17.61a1.51,1.51,0,0,1,0,2.6l-28.14,17a3.63,3.63,0,0,1-3.67.05l-30-17.37a1.62,1.62,0,0,1,0-2.8l28.21-17.07A3.12,3.12,0,0,1,766.62,1591.63Z"/><path class="cls-2" d="M717.7,1563l30.44,17.62a1.5,1.5,0,0,1,0,2.59l-28.14,17a3.64,3.64,0,0,1-3.68,0l-30-17.38a1.61,1.61,0,0,1,0-2.79l28.21-17.08A3.19,3.19,0,0,1,717.7,1563Z"/><path class="cls-2" d="M668.77,1534.4,699.21,1552a1.51,1.51,0,0,1,0,2.6l-28.14,17a3.63,3.63,0,0,1-3.67.06l-30-17.38a1.62,1.62,0,0,1,0-2.8l28.21-17.07A3.12,3.12,0,0,1,668.77,1534.4Z"/><path class="cls-2" d="M619.85,1505.78l30.44,17.62a1.5,1.5,0,0,1,0,2.59l-28.14,17a3.63,3.63,0,0,1-3.67,0l-30-17.37a1.62,1.62,0,0,1,0-2.8l28.21-17.07A3.17,3.17,0,0,1,619.85,1505.78Z"/><path class="cls-2" d="M570.93,1477.17l30.43,17.61a1.51,1.51,0,0,1,0,2.6l-28.14,17a3.63,3.63,0,0,1-3.67,0l-30-17.38a1.61,1.61,0,0,1,0-2.79l28.21-17.08A3.14,3.14,0,0,1,570.93,1477.17Z"/><path class="cls-2" d="M522,1448.55l30.44,17.62a1.5,1.5,0,0,1,0,2.59l-28.14,17a3.63,3.63,0,0,1-3.67,0l-30-17.37a1.62,1.62,0,0,1,0-2.8l28.22-17.07A3.15,3.15,0,0,1,522,1448.55Z"/><path class="cls-2" d="M473.08,1419.94l30.43,17.61a1.51,1.51,0,0,1,0,2.6l-28.14,17a3.63,3.63,0,0,1-3.67,0l-30-17.37a1.62,1.62,0,0,1,0-2.8L469.89,1420A3.14,3.14,0,0,1,473.08,1419.94Z"/><path class="cls-2" d="M392.75,1408.44,421,1391.37a3.12,3.12,0,0,1,3.18,0l30.44,17.61a1.51,1.51,0,0,1,0,2.6l-28.14,17a3.6,3.6,0,0,1-3.67,0l-30-17.37A1.62,1.62,0,0,1,392.75,1408.44Z"/><path class="cls-2" d="M405.68,1382.92l-28.14,17a3.63,3.63,0,0,1-3.67,0l-30-17.37a1.63,1.63,0,0,1,0-2.8L372,1362.76a3.14,3.14,0,0,1,3.19,0l30.43,17.61A1.5,1.5,0,0,1,405.68,1382.92Z"/><path class="cls-2" d="M874.8,1759.82a1.62,1.62,0,0,1,0-2.8L903,1740a3.12,3.12,0,0,1,3.18,0l11.5,6.65c.07,0,.14,0,.2.06l11.91,7,6.83,4s0,0,0,.06l48.89,28.55a1.51,1.51,0,0,1,0,2.6l-28.14,17a3.63,3.63,0,0,1-3.67,0l-55.16-32.22Z"/><path class="cls-2" d="M859.56,1748.53a3.63,3.63,0,0,1-3.67,0l-30-17.37a1.63,1.63,0,0,1,0-2.8l28.21-17.07a3.12,3.12,0,0,1,3.19,0l30.43,17.6a1.51,1.51,0,0,1,0,2.6Z"/><path class="cls-2" d="M808.32,1682.68l30.44,17.61a1.51,1.51,0,0,1,0,2.6l-28.14,17a3.6,3.6,0,0,1-3.67,0l-30-17.37a1.61,1.61,0,0,1,0-2.79l28.21-17.08A3.15,3.15,0,0,1,808.32,1682.68Z"/><path class="cls-2" d="M759.4,1654.07l30.43,17.61a1.5,1.5,0,0,1,0,2.59l-28.15,17a3.63,3.63,0,0,1-3.67,0L728,1674a1.63,1.63,0,0,1,0-2.8l28.21-17.07A3.14,3.14,0,0,1,759.4,1654.07Z"/><path class="cls-2" d="M710.47,1625.45l30.44,17.62a1.5,1.5,0,0,1,0,2.59l-28.14,17a3.58,3.58,0,0,1-3.67,0l-30-17.37a1.61,1.61,0,0,1,0-2.79l28.21-17.08A3.15,3.15,0,0,1,710.47,1625.45Z"/><path class="cls-2" d="M661.55,1596.84,692,1614.45a1.5,1.5,0,0,1,0,2.59l-28.15,17a3.6,3.6,0,0,1-3.67,0l-30-17.37a1.63,1.63,0,0,1,0-2.8l28.21-17.07A3.14,3.14,0,0,1,661.55,1596.84Z"/><path class="cls-2" d="M612.62,1568.22l30.44,17.62a1.5,1.5,0,0,1,0,2.59l-28.14,17a3.63,3.63,0,0,1-3.67,0l-30-17.38a1.61,1.61,0,0,1,0-2.79l28.21-17.07A3.12,3.12,0,0,1,612.62,1568.22Z"/><path class="cls-2" d="M563.7,1539.61l30.43,17.61a1.5,1.5,0,0,1,0,2.59l-28.15,17a3.6,3.6,0,0,1-3.67,0l-30-17.37a1.63,1.63,0,0,1,0-2.8l28.21-17.07A3.14,3.14,0,0,1,563.7,1539.61Z"/><path class="cls-2" d="M514.77,1511l30.44,17.62a1.5,1.5,0,0,1,0,2.59l-28.14,17a3.63,3.63,0,0,1-3.67,0l-30-17.38a1.61,1.61,0,0,1,0-2.79L511.59,1511A3.15,3.15,0,0,1,514.77,1511Z"/><path class="cls-2" d="M464.49,1519.67l-30-17.38a1.63,1.63,0,0,1,0-2.8l28.21-17.07a3.17,3.17,0,0,1,3.19,0L496.28,1500a1.51,1.51,0,0,1,0,2.6l-28.14,17A3.64,3.64,0,0,1,464.49,1519.67Z"/><path class="cls-2" d="M413.74,1453.81a3.12,3.12,0,0,1,3.18,0l30.44,17.61a1.5,1.5,0,0,1,0,2.59l-28.14,17a3.63,3.63,0,0,1-3.67,0l-30-17.37a1.62,1.62,0,0,1,0-2.8Z"/><path class="cls-2" d="M368,1425.15l30.44,17.61a1.51,1.51,0,0,1,0,2.6l-28.14,17a3.64,3.64,0,0,1-3.68,0l-10.51-6.09c-.15-.06-.32,0-.46-.11l-68-39.79a1.62,1.62,0,0,1,0-2.8l28.21-17.07a3.12,3.12,0,0,1,3.18,0l48.87,28.6Z"/><path class="cls-2" d="M867.55,1819.46l28.21-17.07a3.15,3.15,0,0,1,3.18-.05L929.38,1820a1.5,1.5,0,0,1,0,2.59l-28.14,17a3.63,3.63,0,0,1-3.67.05l-30-17.38A1.61,1.61,0,0,1,867.55,1819.46Z"/><path class="cls-2" d="M880.48,1793.94l-28.14,17a3.64,3.64,0,0,1-3.68,0l-30-17.38a1.61,1.61,0,0,1,0-2.79l28.22-17.08a3.15,3.15,0,0,1,3.18,0l30.44,17.61A1.51,1.51,0,0,1,880.48,1793.94Z"/><path class="cls-2" d="M831.55,1765.33l-28.14,17a3.63,3.63,0,0,1-3.67.05l-30-17.37a1.62,1.62,0,0,1,0-2.8l28.21-17.07a3.12,3.12,0,0,1,3.18,0l30.44,17.61A1.51,1.51,0,0,1,831.55,1765.33Z"/><path class="cls-2" d="M750.81,1753.79l-30-17.38a1.61,1.61,0,0,1,0-2.79L749,1716.54a3.17,3.17,0,0,1,3.18,0l30.44,17.62a1.5,1.5,0,0,1,0,2.59l-28.14,17A3.64,3.64,0,0,1,750.81,1753.79Z"/><path class="cls-2" d="M701.89,1725.17l-30-17.37a1.61,1.61,0,0,1,0-2.79l28.21-17.08a3.12,3.12,0,0,1,3.18,0l30.44,17.61a1.51,1.51,0,0,1,0,2.6l-28.14,17A3.6,3.6,0,0,1,701.89,1725.17Z"/><path class="cls-2" d="M653,1696.56l-30-17.37a1.62,1.62,0,0,1,0-2.8l28.22-17.07a3.15,3.15,0,0,1,3.18,0l30.44,17.62a1.5,1.5,0,0,1,0,2.59l-28.14,17A3.64,3.64,0,0,1,653,1696.56Z"/><path class="cls-2" d="M604,1668l-30-17.38a1.62,1.62,0,0,1,0-2.79l28.21-17.07a3.1,3.1,0,0,1,3.18,0l30.44,17.61a1.51,1.51,0,0,1,0,2.6l-28.14,17A3.63,3.63,0,0,1,604,1668Z"/><path class="cls-2" d="M555.12,1639.33l-30-17.37a1.62,1.62,0,0,1,0-2.8l28.22-17.07a3.12,3.12,0,0,1,3.18,0l30.44,17.61a1.5,1.5,0,0,1,0,2.59l-28.14,17A3.6,3.6,0,0,1,555.12,1639.33Z"/><path class="cls-2" d="M506.19,1610.72l-30-17.38a1.62,1.62,0,0,1,0-2.79l28.21-17.07a3.14,3.14,0,0,1,3.19,0L538,1591a1.51,1.51,0,0,1,0,2.6l-28.14,17A3.63,3.63,0,0,1,506.19,1610.72Z"/><path class="cls-2" d="M457.27,1582.1l-30-17.37a1.62,1.62,0,0,1,0-2.8l28.22-17.07a3.15,3.15,0,0,1,3.18,0l30.44,17.61a1.5,1.5,0,0,1,0,2.59l-28.14,17A3.6,3.6,0,0,1,457.27,1582.1Z"/><path class="cls-2" d="M408.34,1553.49l-30-17.37a1.63,1.63,0,0,1,0-2.8l28.21-17.07a3.12,3.12,0,0,1,3.19,0l30.43,17.61a1.5,1.5,0,0,1,0,2.59l-28.13,17A3.64,3.64,0,0,1,408.34,1553.49Z"/><path class="cls-2" d="M360.77,1487.59l30.44,17.62a1.5,1.5,0,0,1,0,2.59l-28.14,17a3.6,3.6,0,0,1-3.67,0l-30-17.37a1.61,1.61,0,0,1,0-2.79l28.22-17.08A3.15,3.15,0,0,1,360.77,1487.59Z"/><path class="cls-2" d="M310.49,1496.26l-30-17.37a1.63,1.63,0,0,1,0-2.8L308.67,1459a3.12,3.12,0,0,1,3.18,0l30.43,17.61a1.5,1.5,0,0,1,0,2.59l-28.13,17A3.64,3.64,0,0,1,310.49,1496.26Z"/><path class="cls-2" d="M293.38,1450.57l-28.14,17a3.6,3.6,0,0,1-3.67,0l-30-17.37a1.62,1.62,0,0,1,0-2.79l28.22-17.08a3.17,3.17,0,0,1,3.18,0L293.36,1448A1.5,1.5,0,0,1,293.38,1450.57Z"/><path class="cls-2" d="M811.39,1853.28l28.22-17.07a3.15,3.15,0,0,1,3.18,0l30.44,17.61a1.51,1.51,0,0,1,0,2.6l-28.14,17a3.6,3.6,0,0,1-3.67,0l-30-17.37A1.63,1.63,0,0,1,811.39,1853.28Z"/><path class="cls-2" d="M796.19,1844.79a3.64,3.64,0,0,1-3.68,0l-30-17.37a1.63,1.63,0,0,1,0-2.8l28.22-17.07a3.12,3.12,0,0,1,3.18,0l30.43,17.61a1.5,1.5,0,0,1,0,2.59Z"/><path class="cls-2" d="M743.59,1816.22l-30-17.37a1.61,1.61,0,0,1,0-2.79L741.76,1779a3.15,3.15,0,0,1,3.18,0l30.44,17.62a1.5,1.5,0,0,1,0,2.59l-28.14,17A3.6,3.6,0,0,1,743.59,1816.22Z"/><path class="cls-2" d="M694.66,1787.61l-30-17.37a1.62,1.62,0,0,1,0-2.8l28.22-17.07a3.12,3.12,0,0,1,3.18,0l30.44,17.61a1.5,1.5,0,0,1,0,2.59l-28.14,17A3.64,3.64,0,0,1,694.66,1787.61Z"/><path class="cls-2" d="M645.74,1759l-30-17.38a1.61,1.61,0,0,1,0-2.79l28.21-17.07a3.15,3.15,0,0,1,3.18,0l30.44,17.62a1.5,1.5,0,0,1,0,2.59l-28.14,17A3.63,3.63,0,0,1,645.74,1759Z"/><path class="cls-2" d="M596.81,1730.39l-30-17.38a1.62,1.62,0,0,1,0-2.8L595,1693.14a3.12,3.12,0,0,1,3.18,0l30.44,17.61a1.51,1.51,0,0,1,0,2.6l-28.14,17A3.64,3.64,0,0,1,596.81,1730.39Z"/><path class="cls-2" d="M547.89,1701.77l-30-17.38a1.61,1.61,0,0,1,0-2.79l28.21-17.07a3.15,3.15,0,0,1,3.18,0l30.44,17.62a1.5,1.5,0,0,1,0,2.59l-28.14,17A3.63,3.63,0,0,1,547.89,1701.77Z"/><path class="cls-2" d="M499,1673.16l-30-17.38a1.62,1.62,0,0,1,0-2.8l28.22-17.07a3.12,3.12,0,0,1,3.18,0l30.44,17.61a1.51,1.51,0,0,1,0,2.6l-28.14,17A3.64,3.64,0,0,1,499,1673.16Z"/><path class="cls-2" d="M450,1644.54l-30-17.37a1.62,1.62,0,0,1,0-2.8l28.21-17.07a3.17,3.17,0,0,1,3.19,0l30.43,17.62a1.5,1.5,0,0,1,0,2.59l-28.14,17A3.63,3.63,0,0,1,450,1644.54Z"/><path class="cls-2" d="M401.12,1615.93l-30-17.37a1.62,1.62,0,0,1,0-2.8l28.22-17.08a3.15,3.15,0,0,1,3.18,0l30.44,17.61a1.51,1.51,0,0,1,0,2.6l-28.14,17A3.63,3.63,0,0,1,401.12,1615.93Z"/><path class="cls-2" d="M352.19,1587.31l-30-17.37a1.62,1.62,0,0,1,0-2.79l28.21-17.08a3.14,3.14,0,0,1,3.19,0L384,1567.64a1.51,1.51,0,0,1,0,2.6l-28.14,17A3.63,3.63,0,0,1,352.19,1587.31Z"/><path class="cls-2" d="M303.27,1558.7l-30-17.37a1.62,1.62,0,0,1,0-2.8l28.22-17.07a3.12,3.12,0,0,1,3.18,0L335.06,1539a1.5,1.5,0,0,1,0,2.59l-28.14,17A3.63,3.63,0,0,1,303.27,1558.7Z"/><path class="cls-2" d="M254.34,1530.08l-30-17.37a1.62,1.62,0,0,1,0-2.79l28.21-17.08a3.17,3.17,0,0,1,3.19,0l30.43,17.61a1.51,1.51,0,0,1,0,2.6L258,1530A3.58,3.58,0,0,1,254.34,1530.08Z"/><path class="cls-2" d="M237.23,1484.39l-28.14,17a3.63,3.63,0,0,1-3.67,0l-30-17.37a1.62,1.62,0,0,1,0-2.8l28.22-17.07a3.12,3.12,0,0,1,3.18,0l30.44,17.61A1.5,1.5,0,0,1,237.23,1484.39Z"/><path class="cls-2" d="M783.46,1870a3.12,3.12,0,0,1,3.18,0l30.44,17.61a1.51,1.51,0,0,1,0,2.6l-28.14,17a3.63,3.63,0,0,1-3.67,0l-30-17.37a1.62,1.62,0,0,1,0-2.8Z"/><path class="cls-2" d="M734.53,1841.42a3.14,3.14,0,0,1,3.19,0L768.15,1859a1.51,1.51,0,0,1,0,2.6l-28.14,17a3.6,3.6,0,0,1-3.67.05l-30-17.37a1.62,1.62,0,0,1,0-2.79Z"/><path class="cls-2" d="M685.61,1812.81a3.12,3.12,0,0,1,3.18,0l30.44,17.61a1.5,1.5,0,0,1,0,2.59l-28.14,17a3.63,3.63,0,0,1-3.67,0l-30-17.37a1.62,1.62,0,0,1,0-2.8Z"/><path class="cls-2" d="M636.68,1784.19a3.17,3.17,0,0,1,3.19,0l30.43,17.61a1.51,1.51,0,0,1,0,2.6l-28.15,17a3.6,3.6,0,0,1-3.67.06l-30-17.38a1.62,1.62,0,0,1,0-2.79Z"/><path class="cls-2" d="M392.06,1641.12a3.15,3.15,0,0,1,3.18,0l14.86,8.6a3,3,0,0,1,1.88.33l209.4,123.14a1.5,1.5,0,0,1,0,2.59l-28.14,17a3.6,3.6,0,0,1-3.67,0l-48.45-28.49a4.21,4.21,0,0,1-.48-.12l-30-17.38c-.26-.15-.25-.44-.39-.67l-17.55-10.32a3.58,3.58,0,0,1-1-.25l-30-17.37c-.36-.2-.41-.58-.54-.92l-16.92-10a3.5,3.5,0,0,1-1.45-.37l-30-17.37a1.55,1.55,0,0,1-.68-1.16l-16.34-9.62a3.58,3.58,0,0,1-1.88-.47l-30-17.37a1.62,1.62,0,0,1,0-2.8Z"/><path class="cls-2" d="M343.13,1612.51a3.14,3.14,0,0,1,3.19,0l30.44,17.61a1.5,1.5,0,0,1,0,2.59l-28.15,17a3.63,3.63,0,0,1-3.67,0l-30-17.37a1.63,1.63,0,0,1,0-2.8Z"/><path class="cls-2" d="M294.21,1583.89a3.17,3.17,0,0,1,3.18,0l30.44,17.62a1.5,1.5,0,0,1,0,2.59l-28.14,17a3.63,3.63,0,0,1-3.67.05l-30-17.38a1.61,1.61,0,0,1,0-2.79Z"/><path class="cls-2" d="M245.28,1555.28a3.14,3.14,0,0,1,3.19,0l30.44,17.61a1.51,1.51,0,0,1,0,2.6l-28.14,17a3.62,3.62,0,0,1-3.68,0l-30-17.37a1.63,1.63,0,0,1,0-2.8Z"/><path class="cls-2" d="M196.36,1526.67a3.17,3.17,0,0,1,3.19-.05L230,1544.24a1.5,1.5,0,0,1,0,2.59l-28.14,17a3.63,3.63,0,0,1-3.67.05l-30-17.38a1.61,1.61,0,0,1,0-2.79Z"/><path class="cls-2" d="M119.22,1515.12l28.22-17.07a3.12,3.12,0,0,1,3.18,0l30.44,17.61a1.51,1.51,0,0,1,0,2.6l-28.14,17a3.63,3.63,0,0,1-3.67,0l-30-17.38A1.63,1.63,0,0,1,119.22,1515.12Z"/><path class="cls-10" d="M1036,1714.92l30,17.37a3.62,3.62,0,0,0,3.68,0l28.14-17a1.51,1.51,0,0,0,0-2.6L1067.4,1695a3.15,3.15,0,0,0-3.18,0L1036,1712.13A1.62,1.62,0,0,0,1036,1714.92Z"/><path class="cls-10" d="M987.1,1686.31l30,17.37a3.63,3.63,0,0,0,3.67,0l28.14-17a1.5,1.5,0,0,0,0-2.59l-30.44-17.61a3.12,3.12,0,0,0-3.18,0l-28.21,17.07A1.62,1.62,0,0,0,987.1,1686.31Z"/><path class="cls-10" d="M938.18,1657.69l30,17.38a3.64,3.64,0,0,0,3.68,0l28.14-17a1.51,1.51,0,0,0,0-2.6l-30.44-17.61a3.15,3.15,0,0,0-3.18,0l-28.22,17.08A1.61,1.61,0,0,0,938.18,1657.69Z"/><path class="cls-10" d="M889.25,1629.08l30,17.37a3.63,3.63,0,0,0,3.67,0l28.14-17a1.5,1.5,0,0,0,0-2.59l-30.44-17.61a3.12,3.12,0,0,0-3.18,0l-28.21,17.07A1.62,1.62,0,0,0,889.25,1629.08Z"/><path class="cls-10" d="M840.33,1600.46l30,17.38a3.64,3.64,0,0,0,3.68,0l28.14-17a1.5,1.5,0,0,0,0-2.59l-30.44-17.62a3.15,3.15,0,0,0-3.18,0l-28.22,17.07A1.61,1.61,0,0,0,840.33,1600.46Z"/><path class="cls-10" d="M791.4,1571.85l30,17.37a3.58,3.58,0,0,0,3.67,0l28.14-17a1.51,1.51,0,0,0,0-2.6l-30.44-17.61a3.12,3.12,0,0,0-3.18,0l-28.21,17.08A1.61,1.61,0,0,0,791.4,1571.85Z"/><path class="cls-10" d="M742.48,1543.24l30,17.37a3.63,3.63,0,0,0,3.67,0l28.14-17a1.5,1.5,0,0,0,0-2.59l-30.44-17.61a3.12,3.12,0,0,0-3.18,0l-28.22,17.07A1.62,1.62,0,0,0,742.48,1543.24Z"/><path class="cls-10" d="M693.55,1514.62l30,17.38a3.63,3.63,0,0,0,3.67,0l28.14-17a1.51,1.51,0,0,0,0-2.6l-30.43-17.61a3.17,3.17,0,0,0-3.19,0l-28.21,17.08A1.62,1.62,0,0,0,693.55,1514.62Z"/><path class="cls-10" d="M644.63,1486l30,17.37a3.63,3.63,0,0,0,3.67-.05l28.14-17a1.5,1.5,0,0,0,0-2.59L676,1466.1a3.12,3.12,0,0,0-3.18,0l-28.22,17.07A1.62,1.62,0,0,0,644.63,1486Z"/><path class="cls-10" d="M595.7,1457.39l30,17.38a3.63,3.63,0,0,0,3.67,0l28.14-17a1.5,1.5,0,0,0,0-2.59l-30.43-17.62a3.14,3.14,0,0,0-3.19,0l-28.21,17.07A1.62,1.62,0,0,0,595.7,1457.39Z"/><path class="cls-10" d="M546.78,1428.78l30,17.37a3.6,3.6,0,0,0,3.67-.05l28.14-17a1.51,1.51,0,0,0,0-2.6l-30.44-17.61a3.12,3.12,0,0,0-3.18,0L546.75,1426A1.62,1.62,0,0,0,546.78,1428.78Z"/><path class="cls-10" d="M497.85,1400.17l30,17.37a3.63,3.63,0,0,0,3.67,0l28.15-17a1.5,1.5,0,0,0,0-2.59l-30.43-17.62a3.17,3.17,0,0,0-3.19,0l-28.21,17.07A1.63,1.63,0,0,0,497.85,1400.17Z"/><path class="cls-10" d="M448.93,1371.55l30,17.38a3.63,3.63,0,0,0,3.67,0l28.14-17a1.51,1.51,0,0,0,0-2.6l-30.44-17.61a3.15,3.15,0,0,0-3.18,0l-28.22,17.08A1.61,1.61,0,0,0,448.93,1371.55Z"/><path class="cls-10" d="M400,1342.94l30,17.37a3.63,3.63,0,0,0,3.67,0l28.15-17a1.5,1.5,0,0,0,0-2.59L431.38,1323a3.14,3.14,0,0,0-3.19,0L400,1340.14A1.63,1.63,0,0,0,400,1342.94Z"/><path class="cls-10" d="M979.87,1748.75l30,17.37a3.63,3.63,0,0,0,3.67,0l28.15-17a1.5,1.5,0,0,0,0-2.59l-30.43-17.62a3.17,3.17,0,0,0-3.19.05L979.85,1746A1.63,1.63,0,0,0,979.87,1748.75Z"/><path class="cls-10" d="M931,1720.13l30,17.37a3.6,3.6,0,0,0,3.67,0l28.14-17a1.51,1.51,0,0,0,0-2.6l-30.44-17.61a3.15,3.15,0,0,0-3.18,0l-28.21,17.08A1.61,1.61,0,0,0,931,1720.13Z"/><path class="cls-10" d="M882,1691.52l30,17.37a3.64,3.64,0,0,0,3.68-.05l28.14-17a1.5,1.5,0,0,0,0-2.59l-30.43-17.61a3.14,3.14,0,0,0-3.19,0L882,1688.72A1.63,1.63,0,0,0,882,1691.52Z"/><path class="cls-10" d="M833.1,1662.9l30,17.38a3.63,3.63,0,0,0,3.67,0l28.14-17a1.51,1.51,0,0,0,0-2.6L864.47,1643a3.15,3.15,0,0,0-3.18,0l-28.21,17.08A1.61,1.61,0,0,0,833.1,1662.9Z"/><path class="cls-10" d="M784.17,1634.29l30,17.37a3.64,3.64,0,0,0,3.68-.05l28.14-17a1.5,1.5,0,0,0,0-2.59l-30.44-17.61a3.12,3.12,0,0,0-3.18,0l-28.22,17.07A1.63,1.63,0,0,0,784.17,1634.29Z"/><path class="cls-10" d="M735.25,1605.67l30,17.38a3.63,3.63,0,0,0,3.67,0l28.14-17a1.5,1.5,0,0,0,0-2.59l-30.44-17.62a3.15,3.15,0,0,0-3.18,0l-28.21,17.07A1.61,1.61,0,0,0,735.25,1605.67Z"/><path class="cls-10" d="M686.32,1577.06l30,17.37a3.6,3.6,0,0,0,3.68,0l28.14-17a1.51,1.51,0,0,0,0-2.6l-30.44-17.61a3.12,3.12,0,0,0-3.18,0l-28.22,17.07A1.63,1.63,0,0,0,686.32,1577.06Z"/><path class="cls-10" d="M637.4,1548.45l30,17.37a3.63,3.63,0,0,0,3.67,0l28.14-17a1.5,1.5,0,0,0,0-2.59l-30.44-17.61a3.12,3.12,0,0,0-3.18,0l-28.21,17.07A1.62,1.62,0,0,0,637.4,1548.45Z"/><path class="cls-10" d="M588.48,1519.83l30,17.38a3.64,3.64,0,0,0,3.68,0l28.14-17a1.51,1.51,0,0,0,0-2.6l-30.44-17.61a3.15,3.15,0,0,0-3.18,0L588.45,1517A1.61,1.61,0,0,0,588.48,1519.83Z"/><path class="cls-10" d="M539.55,1491.22l30,17.37a3.63,3.63,0,0,0,3.67,0l28.14-17a1.5,1.5,0,0,0,0-2.59l-30.44-17.61a3.12,3.12,0,0,0-3.18,0l-28.21,17.07A1.62,1.62,0,0,0,539.55,1491.22Z"/><path class="cls-10" d="M490.63,1462.6l30,17.38a3.64,3.64,0,0,0,3.68,0l28.14-17a1.5,1.5,0,0,0,0-2.59L522,1442.69a3.12,3.12,0,0,0-3.18,0l-28.22,17.07A1.61,1.61,0,0,0,490.63,1462.6Z"/><path class="cls-10" d="M441.7,1434l30,17.37a3.6,3.6,0,0,0,3.67,0l28.14-17a1.51,1.51,0,0,0,0-2.6l-30.43-17.61a3.14,3.14,0,0,0-3.19,0l-28.21,17.07A1.62,1.62,0,0,0,441.7,1434Z"/><path class="cls-10" d="M392.78,1405.38l30,17.37a3.63,3.63,0,0,0,3.67,0l28.14-17a1.5,1.5,0,0,0,0-2.59l-30.44-17.62a3.15,3.15,0,0,0-3.18,0l-28.22,17.07A1.62,1.62,0,0,0,392.78,1405.38Z"/><path class="cls-10" d="M343.85,1376.76l30,17.37a3.6,3.6,0,0,0,3.67,0l28.14-17a1.51,1.51,0,0,0,0-2.6l-30.43-17.61a3.17,3.17,0,0,0-3.19,0L343.83,1374A1.62,1.62,0,0,0,343.85,1376.76Z"/><path class="cls-10" d="M886.5,1760.66l67.24,39.28a3.6,3.6,0,0,0,3.67,0l28.14-17a1.5,1.5,0,0,0,0-2.59l-67.66-39.52a3.15,3.15,0,0,0-3.18,0l-28.21,17.08A1.61,1.61,0,0,0,886.5,1760.66Z"/><path class="cls-10" d="M874.8,1754l30,17.38a3.63,3.63,0,0,0,3.67,0l28.14-17a1.5,1.5,0,0,0,0-2.59L906.17,1734a3.15,3.15,0,0,0-3.18,0l-28.22,17.07A1.61,1.61,0,0,0,874.8,1754Z"/><path class="cls-10" d="M825.87,1725.34l30,17.37a3.58,3.58,0,0,0,3.67,0l28.14-17a1.51,1.51,0,0,0,0-2.6l-30.43-17.61a3.14,3.14,0,0,0-3.19,0l-28.21,17.08A1.62,1.62,0,0,0,825.87,1725.34Z"/><path class="cls-10" d="M777,1696.73l30,17.37a3.63,3.63,0,0,0,3.67,0l28.14-17a1.5,1.5,0,0,0,0-2.59l-30.44-17.61a3.12,3.12,0,0,0-3.18,0l-28.22,17.07A1.62,1.62,0,0,0,777,1696.73Z"/><path class="cls-10" d="M728,1668.11l30,17.38a3.63,3.63,0,0,0,3.67,0l28.15-17a1.51,1.51,0,0,0,0-2.6L759.4,1648.2a3.17,3.17,0,0,0-3.19,0L728,1665.32A1.62,1.62,0,0,0,728,1668.11Z"/><path class="cls-10" d="M679.1,1639.5l30,17.37a3.63,3.63,0,0,0,3.67,0l28.14-17a1.5,1.5,0,0,0,0-2.59l-30.44-17.61a3.12,3.12,0,0,0-3.18,0l-28.22,17.07A1.62,1.62,0,0,0,679.1,1639.5Z"/><path class="cls-10" d="M630.17,1610.88l30,17.38a3.63,3.63,0,0,0,3.67,0l28.15-17a1.5,1.5,0,0,0,0-2.59L661.55,1591a3.14,3.14,0,0,0-3.19,0l-28.21,17.07A1.62,1.62,0,0,0,630.17,1610.88Z"/><path class="cls-10" d="M581.25,1582.27l30,17.37a3.58,3.58,0,0,0,3.67-.05l28.14-17a1.51,1.51,0,0,0,0-2.6l-30.44-17.61a3.12,3.12,0,0,0-3.18,0l-28.21,17.07A1.62,1.62,0,0,0,581.25,1582.27Z"/><path class="cls-10" d="M532.32,1553.66l30,17.37a3.64,3.64,0,0,0,3.68,0l28.14-17a1.5,1.5,0,0,0,0-2.59l-30.44-17.61a3.14,3.14,0,0,0-3.19,0l-28.21,17.07A1.63,1.63,0,0,0,532.32,1553.66Z"/><path class="cls-10" d="M483.4,1525l30,17.38a3.63,3.63,0,0,0,3.67-.05l28.14-17a1.51,1.51,0,0,0,0-2.6l-30.44-17.61a3.15,3.15,0,0,0-3.18,0l-28.21,17.08A1.61,1.61,0,0,0,483.4,1525Z"/><path class="cls-10" d="M434.47,1496.43l30,17.37a3.64,3.64,0,0,0,3.68,0l28.14-17a1.5,1.5,0,0,0,0-2.59l-30.44-17.61a3.12,3.12,0,0,0-3.18,0l-28.22,17.07A1.63,1.63,0,0,0,434.47,1496.43Z"/><path class="cls-10" d="M385.55,1467.81l30,17.38a3.63,3.63,0,0,0,3.67,0l28.14-17a1.5,1.5,0,0,0,0-2.59l-30.44-17.62a3.12,3.12,0,0,0-3.18,0L385.53,1465A1.61,1.61,0,0,0,385.55,1467.81Z"/><path class="cls-10" d="M336.62,1439.2l30,17.37a3.62,3.62,0,0,0,3.68,0l28.14-17a1.51,1.51,0,0,0,0-2.6L368,1419.29a3.12,3.12,0,0,0-3.18,0L336.6,1436.4A1.63,1.63,0,0,0,336.62,1439.2Z"/><path class="cls-10" d="M287.7,1410.59l68,39.78a3.63,3.63,0,0,0,3.67,0l28.14-17a1.5,1.5,0,0,0,0-2.59l-68.39-40a3.15,3.15,0,0,0-3.18,0l-28.21,17.07A1.62,1.62,0,0,0,287.7,1410.59Z"/><path class="cls-10" d="M867.57,1816.39l30,17.38a3.63,3.63,0,0,0,3.67,0l28.14-17a1.51,1.51,0,0,0,0-2.6l-30.44-17.61a3.15,3.15,0,0,0-3.18,0l-28.21,17.08A1.61,1.61,0,0,0,867.57,1816.39Z"/><path class="cls-10" d="M818.65,1787.78l30,17.37a3.64,3.64,0,0,0,3.68-.05l28.14-17a1.5,1.5,0,0,0,0-2.59L850,1767.87a3.12,3.12,0,0,0-3.18,0L818.62,1785A1.62,1.62,0,0,0,818.65,1787.78Z"/><path class="cls-10" d="M769.72,1759.16l30,17.38a3.63,3.63,0,0,0,3.67,0l28.14-17a1.5,1.5,0,0,0,0-2.59l-30.44-17.62a3.15,3.15,0,0,0-3.18,0l-28.21,17.07A1.61,1.61,0,0,0,769.72,1759.16Z"/><path class="cls-10" d="M720.8,1730.55l30,17.37a3.6,3.6,0,0,0,3.68-.05l28.14-17a1.51,1.51,0,0,0,0-2.6l-30.44-17.61a3.12,3.12,0,0,0-3.18,0l-28.22,17.08A1.61,1.61,0,0,0,720.8,1730.55Z"/><path class="cls-10" d="M671.87,1701.94l30,17.37a3.63,3.63,0,0,0,3.67,0l28.14-17a1.5,1.5,0,0,0,0-2.59L703.25,1682a3.14,3.14,0,0,0-3.19,0l-28.21,17.07A1.62,1.62,0,0,0,671.87,1701.94Z"/><path class="cls-10" d="M623,1673.32l30,17.38a3.63,3.63,0,0,0,3.67,0l28.14-17a1.51,1.51,0,0,0,0-2.6l-30.44-17.61a3.15,3.15,0,0,0-3.18,0l-28.22,17.08A1.61,1.61,0,0,0,623,1673.32Z"/><path class="cls-10" d="M574,1644.71l30,17.37a3.63,3.63,0,0,0,3.67,0l28.14-17a1.5,1.5,0,0,0,0-2.59L605.4,1624.8a3.14,3.14,0,0,0-3.19,0L574,1641.91A1.63,1.63,0,0,0,574,1644.71Z"/><path class="cls-10" d="M525.1,1616.09l30,17.38a3.63,3.63,0,0,0,3.67,0l28.14-17a1.5,1.5,0,0,0,0-2.59l-30.44-17.62a3.12,3.12,0,0,0-3.18,0l-28.22,17.07A1.61,1.61,0,0,0,525.1,1616.09Z"/><path class="cls-10" d="M476.17,1587.48l30,17.37a3.6,3.6,0,0,0,3.67,0l28.14-17a1.51,1.51,0,0,0,0-2.6l-30.43-17.61a3.14,3.14,0,0,0-3.19,0l-28.21,17.07A1.63,1.63,0,0,0,476.17,1587.48Z"/><path class="cls-10" d="M427.25,1558.87l30,17.37a3.63,3.63,0,0,0,3.67,0l28.14-17a1.5,1.5,0,0,0,0-2.59L458.62,1539a3.15,3.15,0,0,0-3.18,0l-28.22,17.07A1.62,1.62,0,0,0,427.25,1558.87Z"/><path class="cls-10" d="M378.32,1530.25l30,17.38a3.63,3.63,0,0,0,3.67-.05l28.15-17a1.51,1.51,0,0,0,0-2.6l-30.43-17.61a3.17,3.17,0,0,0-3.19,0l-28.21,17.08A1.62,1.62,0,0,0,378.32,1530.25Z"/><path class="cls-10" d="M329.4,1501.64l30,17.37a3.63,3.63,0,0,0,3.67,0l28.14-17a1.5,1.5,0,0,0,0-2.59l-30.44-17.61a3.12,3.12,0,0,0-3.18,0l-28.21,17.07A1.62,1.62,0,0,0,329.4,1501.64Z"/><path class="cls-10" d="M280.47,1473l30,17.38a3.64,3.64,0,0,0,3.68-.05l28.14-17a1.5,1.5,0,0,0,0-2.59l-30.43-17.62a3.14,3.14,0,0,0-3.19.05l-28.21,17.07A1.62,1.62,0,0,0,280.47,1473Z"/><path class="cls-10" d="M231.55,1444.41l30,17.37a3.6,3.6,0,0,0,3.67,0l28.14-17a1.5,1.5,0,0,0,0-2.59l-30.44-17.61a3.12,3.12,0,0,0-3.18,0l-28.21,17.07A1.62,1.62,0,0,0,231.55,1444.41Z"/><path class="cls-10" d="M811.42,1850.22l30,17.37a3.63,3.63,0,0,0,3.67,0l28.14-17a1.5,1.5,0,0,0,0-2.59l-30.44-17.61a3.12,3.12,0,0,0-3.18,0l-28.21,17.07A1.62,1.62,0,0,0,811.42,1850.22Z"/><path class="cls-10" d="M762.49,1821.6l30,17.38a3.64,3.64,0,0,0,3.68,0l28.14-17a1.51,1.51,0,0,0,0-2.6l-30.44-17.61a3.17,3.17,0,0,0-3.19,0l-28.21,17.08A1.62,1.62,0,0,0,762.49,1821.6Z"/><path class="cls-10" d="M713.57,1793l30,17.37a3.63,3.63,0,0,0,3.67,0l28.14-17a1.5,1.5,0,0,0,0-2.59l-30.44-17.61a3.12,3.12,0,0,0-3.18,0l-28.21,17.07A1.62,1.62,0,0,0,713.57,1793Z"/><path class="cls-10" d="M664.64,1764.37l30,17.38a3.64,3.64,0,0,0,3.68,0l28.14-17a1.5,1.5,0,0,0,0-2.59L696,1744.46a3.15,3.15,0,0,0-3.18,0l-28.22,17.07A1.62,1.62,0,0,0,664.64,1764.37Z"/><path class="cls-10" d="M615.72,1735.76l30,17.37a3.58,3.58,0,0,0,3.67-.05l28.14-17a1.51,1.51,0,0,0,0-2.6l-30.44-17.61a3.12,3.12,0,0,0-3.18,0L615.7,1733A1.62,1.62,0,0,0,615.72,1735.76Z"/><path class="cls-10" d="M566.79,1707.15l30,17.37a3.64,3.64,0,0,0,3.68,0l28.14-17a1.5,1.5,0,0,0,0-2.59l-30.44-17.61a3.12,3.12,0,0,0-3.18,0l-28.22,17.07A1.63,1.63,0,0,0,566.79,1707.15Z"/><path class="cls-10" d="M517.87,1678.53l30,17.38a3.63,3.63,0,0,0,3.67-.05l28.14-17a1.51,1.51,0,0,0,0-2.6l-30.44-17.61a3.15,3.15,0,0,0-3.18,0l-28.21,17.08A1.61,1.61,0,0,0,517.87,1678.53Z"/><path class="cls-10" d="M469,1649.92l30,17.37a3.64,3.64,0,0,0,3.68,0l28.14-17a1.5,1.5,0,0,0,0-2.59L500.32,1630a3.12,3.12,0,0,0-3.18,0l-28.22,17.07A1.62,1.62,0,0,0,469,1649.92Z"/><path class="cls-10" d="M420,1621.3l30,17.38a3.63,3.63,0,0,0,3.67,0l28.14-17a1.5,1.5,0,0,0,0-2.59l-30.44-17.62a3.12,3.12,0,0,0-3.18,0L420,1618.51A1.61,1.61,0,0,0,420,1621.3Z"/><path class="cls-10" d="M371.1,1592.69l30,17.37a3.62,3.62,0,0,0,3.68,0l28.14-17a1.51,1.51,0,0,0,0-2.6l-30.44-17.61a3.12,3.12,0,0,0-3.18,0l-28.22,17.07A1.62,1.62,0,0,0,371.1,1592.69Z"/><path class="cls-10" d="M322.17,1564.08l30,17.37a3.63,3.63,0,0,0,3.67,0l28.14-17a1.5,1.5,0,0,0,0-2.59l-30.43-17.62a3.17,3.17,0,0,0-3.19,0l-28.21,17.07A1.63,1.63,0,0,0,322.17,1564.08Z"/><path class="cls-10" d="M273.25,1535.46l30,17.37a3.6,3.6,0,0,0,3.67,0l28.14-17a1.51,1.51,0,0,0,0-2.6l-30.44-17.61a3.15,3.15,0,0,0-3.18,0l-28.22,17.08A1.61,1.61,0,0,0,273.25,1535.46Z"/><path class="cls-10" d="M224.32,1506.85l30,17.37a3.63,3.63,0,0,0,3.67,0l28.14-17a1.5,1.5,0,0,0,0-2.59l-30.43-17.61a3.14,3.14,0,0,0-3.19,0l-28.21,17.07A1.63,1.63,0,0,0,224.32,1506.85Z"/><path class="cls-10" d="M175.4,1478.23l30,17.38a3.63,3.63,0,0,0,3.67,0l28.14-17a1.5,1.5,0,0,0,0-2.59l-30.44-17.62a3.15,3.15,0,0,0-3.18,0l-28.22,17.08A1.61,1.61,0,0,0,175.4,1478.23Z"/><path class="cls-10" d="M755.27,1884l30,17.37a3.58,3.58,0,0,0,3.67-.05l28.14-17a1.51,1.51,0,0,0,0-2.6l-30.44-17.61a3.12,3.12,0,0,0-3.18,0l-28.22,17.08A1.61,1.61,0,0,0,755.27,1884Z"/><path class="cls-10" d="M706.34,1855.43l30,17.37a3.63,3.63,0,0,0,3.67,0l28.14-17a1.5,1.5,0,0,0,0-2.59l-30.43-17.61a3.14,3.14,0,0,0-3.19,0l-28.21,17.07A1.63,1.63,0,0,0,706.34,1855.43Z"/><path class="cls-10" d="M657.42,1826.81l30,17.38a3.63,3.63,0,0,0,3.67,0l28.14-17a1.51,1.51,0,0,0,0-2.6l-30.44-17.61a3.15,3.15,0,0,0-3.18,0L657.39,1824A1.61,1.61,0,0,0,657.42,1826.81Z"/><path class="cls-10" d="M608.49,1798.2l30,17.37a3.63,3.63,0,0,0,3.67,0l28.15-17a1.5,1.5,0,0,0,0-2.59l-30.43-17.61a3.14,3.14,0,0,0-3.19,0l-28.21,17.07A1.63,1.63,0,0,0,608.49,1798.2Z"/><path class="cls-10" d="M380.61,1664.05l209,122.91a3.63,3.63,0,0,0,3.67,0l28.14-17a1.5,1.5,0,0,0,0-2.59L412,1644.14a3.15,3.15,0,0,0-3.18,0l-28.22,17.08A1.61,1.61,0,0,0,380.61,1664.05Z"/><path class="cls-10" d="M510.64,1741l30,17.37a3.6,3.6,0,0,0,3.68,0l28.14-17a1.51,1.51,0,0,0,0-2.6L542,1721.06a3.14,3.14,0,0,0-3.19,0l-28.21,17.07A1.63,1.63,0,0,0,510.64,1741Z"/><path class="cls-10" d="M461.72,1712.36l30,17.37a3.63,3.63,0,0,0,3.67,0l28.14-17a1.5,1.5,0,0,0,0-2.59l-30.44-17.62a3.15,3.15,0,0,0-3.18,0l-28.21,17.07A1.62,1.62,0,0,0,461.72,1712.36Z"/><path class="cls-10" d="M412.79,1683.74l30,17.38a3.64,3.64,0,0,0,3.68,0l28.14-17a1.51,1.51,0,0,0,0-2.6l-30.44-17.61a3.17,3.17,0,0,0-3.19,0L412.77,1681A1.62,1.62,0,0,0,412.79,1683.74Z"/><path class="cls-10" d="M363.87,1655.13l30,17.37a3.63,3.63,0,0,0,3.67,0l28.14-17a1.5,1.5,0,0,0,0-2.59l-30.44-17.61a3.12,3.12,0,0,0-3.18,0l-28.21,17.07A1.62,1.62,0,0,0,363.87,1655.13Z"/><path class="cls-10" d="M314.94,1626.51l30,17.38a3.64,3.64,0,0,0,3.68-.05l28.14-17a1.5,1.5,0,0,0,0-2.59l-30.44-17.62a3.12,3.12,0,0,0-3.18.05l-28.22,17.07A1.62,1.62,0,0,0,314.94,1626.51Z"/><path class="cls-10" d="M266,1597.9l30,17.37a3.6,3.6,0,0,0,3.67,0l28.14-17a1.5,1.5,0,0,0,0-2.59L297.39,1578a3.12,3.12,0,0,0-3.18,0L266,1595.1A1.62,1.62,0,0,0,266,1597.9Z"/><path class="cls-10" d="M217.1,1569.29l30,17.37a3.64,3.64,0,0,0,3.68-.05l28.14-17a1.5,1.5,0,0,0,0-2.59l-30.44-17.62a3.15,3.15,0,0,0-3.18.05l-28.22,17.07A1.62,1.62,0,0,0,217.1,1569.29Z"/><path class="cls-10" d="M168.17,1540.67l30,17.37a3.6,3.6,0,0,0,3.67,0L230,1541a1.51,1.51,0,0,0,0-2.6l-30.44-17.61a3.15,3.15,0,0,0-3.18,0l-28.21,17.08A1.61,1.61,0,0,0,168.17,1540.67Z"/><path class="cls-10" d="M119.25,1512.06l30,17.37a3.64,3.64,0,0,0,3.68,0l28.14-17a1.5,1.5,0,0,0,0-2.59l-30.44-17.61a3.12,3.12,0,0,0-3.18,0l-28.22,17.07A1.62,1.62,0,0,0,119.25,1512.06Z"/><path class="cls-1" d="M875.17,343.36,291.37,4.13a30.16,30.16,0,0,0-45.32,26.08V540.84a55.35,55.35,0,0,0,27.54,47.85L849.51,923.34c25.21,14.65,56.82-3.54,56.82-32.7V397.5A62.62,62.62,0,0,0,875.17,343.36Z"/><path class="cls-11" d="M854.75,352,271,12.81a30.16,30.16,0,0,0-45.31,26.08V549.52a55.34,55.34,0,0,0,27.53,47.85L829.09,932c25.21,14.65,56.82-3.54,56.82-32.7V406.18A62.62,62.62,0,0,0,854.75,352Z"/><polyline class="cls-12" points="332.26 145.18 332.26 520.88 819.26 802.1"/><line class="cls-13" x1="392.16" y1="555.47" x2="392.16" y2="265.91"/><line class="cls-13" x1="450.75" y1="588.69" x2="450.75" y2="299.13"/><line class="cls-13" x1="509.34" y1="621.9" x2="509.34" y2="332.34"/><line class="cls-13" x1="567.92" y1="655.12" x2="567.92" y2="365.56"/><line class="cls-13" x1="626.51" y1="688.33" x2="626.51" y2="398.77"/><line class="cls-13" x1="685.1" y1="721.55" x2="685.1" y2="431.99"/><line class="cls-13" x1="743.69" y1="754.76" x2="743.69" y2="465.2"/><line class="cls-13" x1="802.27" y1="787.98" x2="802.27" y2="498.42"/><line class="cls-13" x1="332.26" y1="472.06" x2="802.38" y2="743.18"/><line class="cls-13" x1="332.26" y1="423" x2="802.38" y2="694.13"/><line class="cls-13" x1="332.26" y1="373.95" x2="802.38" y2="645.08"/><line class="cls-13" x1="332.26" y1="324.9" x2="802.38" y2="596.03"/><line class="cls-13" x1="332.26" y1="275.84" x2="802.38" y2="546.97"/><line class="cls-13" x1="332.26" y1="226.79" x2="802.38" y2="497.92"/><polyline class="cls-12" points="343.28 527.25 407.47 452.92 471.68 512.51 483.65 485.99 508.69 466.85 545.69 496.28 577.25 499.88 584.87 455.3 621.87 453.17 665.41 530.37 693.44 533.2 729.82 553.84 747.03 526.16 813.57 588.93"/><path class="cls-14" d="M338.91,431.86s57.68,61.89,60.94,70,23.95,5.73,23.95,5.73l45.71,57.93L520.66,542l56.59,13.17,93.6,80.49,5.44-67.76,49,.74V511l84.47-15.44"/><path class="cls-15" d="M760.68,359.21l-92.82-53.94c-4.84-2.8-8.81-9-8.81-13.9v-1.73c0-4.85,4-6.52,8.81-3.72l92.82,53.94c4.85,2.8,8.81,9.06,8.81,13.9v1.73C769.49,360.34,765.53,362,760.68,359.21Z"/><path class="cls-15" d="M792.16,855.8l-80.68-46.88c-4.21-2.43-7.66-7.87-7.66-12.09v-1.5c0-4.21,3.45-5.67,7.66-3.23L792.16,839c4.21,2.43,7.66,7.87,7.66,12.09v1.5C799.82,856.78,796.37,858.24,792.16,855.8Z"/><path class="cls-15" d="M313.05,243.91l-40.34-23.45a8,8,0,0,1-3.83-6v-.75c0-2.11,1.72-2.83,3.83-1.62l40.34,23.44a8,8,0,0,1,3.83,6v.75C316.88,244.39,315.16,245.12,313.05,243.91Z"/><path class="cls-15" d="M313.05,293.86l-40.34-23.44a8,8,0,0,1-3.83-6.05v-.75c0-2.1,1.72-2.83,3.83-1.61l40.34,23.44a8,8,0,0,1,3.83,6v.75C316.88,294.35,315.16,295.07,313.05,293.86Z"/><path class="cls-15" d="M313.05,343.81l-40.34-23.44a8,8,0,0,1-3.83-6.05v-.75c0-2.1,1.72-2.83,3.83-1.61l40.34,23.44a8,8,0,0,1,3.83,6v.75C316.88,344.3,315.16,345,313.05,343.81Z"/><path class="cls-15" d="M313.05,393.76l-40.34-23.44a8,8,0,0,1-3.83-6v-.75c0-2.11,1.72-2.84,3.83-1.62l40.34,23.44a8,8,0,0,1,3.83,6v.75C316.88,394.25,315.16,395,313.05,393.76Z"/><path class="cls-15" d="M313.05,443.71l-40.34-23.44a8,8,0,0,1-3.83-6v-.75c0-2.11,1.72-2.84,3.83-1.62l40.34,23.44a8,8,0,0,1,3.83,6v.75C316.88,444.2,315.16,444.93,313.05,443.71Z"/><path class="cls-15" d="M313.05,493.66l-40.34-23.44a8,8,0,0,1-3.83-6v-.75c0-2.11,1.72-2.84,3.83-1.62l40.34,23.44a8,8,0,0,1,3.83,6.05v.75C316.88,494.15,315.16,494.88,313.05,493.66Z"/><path class="cls-15" d="M655.26,775.76l-80.68-46.88c-4.21-2.43-7.66-7.87-7.66-12.08v-1.51c0-4.21,3.45-5.66,7.66-3.23l80.68,46.88c4.21,2.44,7.66,7.88,7.66,12.09v1.5C662.92,776.74,659.47,778.2,655.26,775.76Z"/><path class="cls-15" d="M518.36,695.73l-80.68-46.89c-4.22-2.43-7.66-7.87-7.66-12.08v-1.5c0-4.22,3.44-5.67,7.66-3.24l80.68,46.88c4.21,2.44,7.66,7.88,7.66,12.09v1.5C526,696.7,522.57,698.16,518.36,695.73Z"/><path class="cls-15" d="M381.45,615.69l-80.67-46.88c-4.22-2.44-7.66-7.88-7.66-12.09v-1.5c0-4.22,3.44-5.67,7.66-3.24l80.67,46.89c4.22,2.43,7.66,7.87,7.66,12.08v1.5C389.11,616.67,385.67,618.12,381.45,615.69Z"/><path class="cls-15" d="M760.68,406.79,585,305.27c-4.84-2.8-8.81-9-8.81-13.9v-1.73c0-4.85,4-6.52,8.81-3.72L760.68,387.43c4.85,2.81,8.81,9.06,8.81,13.91v1.73C769.49,407.91,765.53,409.59,760.68,406.79Z"/><path class="cls-16" d="M688,870.48,676.71,864c-5-2.87-9.05-9.29-9.05-14.27v-1.77c0-5,4.07-6.69,9.05-3.82L688,850.62c5,2.87,9,9.29,9,14.26v1.78C697,871.63,693,873.35,688,870.48Z"/><path class="cls-16" d="M993.8,1047.19,720.1,889c-5-2.88-9-9.3-9-14.27V873c0-5,4.07-6.69,9-3.82l273.7,158.16c5,2.87,9,9.29,9,14.27v1.77C1002.84,1048.34,998.78,1050.06,993.8,1047.19Z"/><path class="cls-16" d="M688,917.38l-11.27-6.51c-5-2.88-9.05-9.3-9.05-14.27v-1.77c0-5,4.07-6.7,9.05-3.82L688,897.52c5,2.88,9,9.3,9,14.27v1.77C697,918.54,693,920.26,688,917.38Z"/><path class="cls-16" d="M993.8,1094.09,720.1,935.94c-5-2.87-9-9.29-9-14.27V919.9c0-5,4.07-6.69,9-3.82l273.7,158.15c5,2.88,9,9.3,9,14.27v1.77C1002.84,1095.25,998.78,1097,993.8,1094.09Z"/><path class="cls-16" d="M688,964.29l-11.27-6.52c-5-2.87-9.05-9.29-9.05-14.26v-1.78c0-5,4.07-6.69,9.05-3.82L688,944.43c5,2.87,9,9.29,9,14.27v1.77C697,965.44,693,967.16,688,964.29Z"/><path class="cls-16" d="M993.8,1141,720.1,982.85c-5-2.88-9-9.3-9-14.27V966.8c0-5,4.07-6.69,9-3.81l273.7,158.15c5,2.87,9,9.29,9,14.27v1.77C1002.84,1142.15,998.78,1143.87,993.8,1141Z"/><path class="cls-17" d="M1533.55,763.07l-273.7-158.15c-5-2.87-9-9.29-9-14.27v-1.77c0-5,4.07-6.69,9-3.82l273.7,158.15c5,2.88,9,9.3,9,14.27v1.77C1542.6,764.23,1538.53,766,1533.55,763.07Z"/><path class="cls-18" d="M1739.7,744l231,138.15a44.34,44.34,0,0,1,22,38.32v257c0,18.91-21.5,42.83-37.84,33.31l-224.45-147a38.59,38.59,0,0,1-19.16-33.34L1697,760.52C1697,745.93,1727.08,736.66,1739.7,744Z"/><path class="cls-19" d="M1719.43,753.8l231,138.16a44.33,44.33,0,0,1,22,38.31v257a24.51,24.51,0,0,1-36.85,21.18l-225.43-134.92a38.58,38.58,0,0,1-19.17-33.34v-270A18.92,18.92,0,0,1,1719.43,753.8Z"/><path class="cls-17" d="M1747.61,931.27l56.68-8.7V939.2l-45,5.52v.37l45,59.31v16.44l-56.68-76.27Z"/><path class="cls-17" d="M1812.53,1033.15l29.17-116.53,10.28,6.13-29.17,116.52Z"/><path class="cls-17" d="M1915.82,1045.22l-56.67,8.33v-16.44l45.67-5.28v-.37l-45.67-59.74V955.28l56.67,75.91Z"/><path class="cls-9" d="M1041.28,2252.23c-.08,29.61,20.72,65.65,46.49,80.53,13.34,7.7,25.37,8.2,33.9,2.8-.23.15-.46.31-.71.45l243.55-141.53c8.38-4.87,13.56-15.22,13.61-29.93a69.19,69.19,0,0,0-.54-8.18c0-.25,0-.49,0-.73l126.88-73.74a15,15,0,0,0,2.39-1.74c41.35,23.64,98.24,38.25,161.11,38.25,126.4,0,229-59.24,229-132.19a77.63,77.63,0,0,0-1-11.93,73.85,73.85,0,0,0,0-23.86,77.73,77.73,0,0,0,1-11.93q0-3.52-.32-7,.33-3.51.33-7.06c0-72.92-102.63-132.18-229.06-132.18s-229,59.26-229,132.18a29.87,29.87,0,0,0,.24,4.63c0,.62.1,1.24.15,1.86-.25,2.51-.39,5-.39,7.58v47.72a29.68,29.68,0,0,0,.24,4.61,80.15,80.15,0,0,0,4.93,23.21l-116.67,67.8-1.62-.73c-.22-.09-.45-.24-.67-.33-.4-.17-.77-.25-1.16-.4-1.11-.43-2.21-.81-3.29-1.14-.34-.1-.7-.26-1.05-.36s-.68-.13-1-.21c-.65-.16-1.28-.29-1.91-.41-.39-.08-.79-.19-1.17-.25s-.87-.08-1.3-.13-.94-.11-1.4-.14c-.26,0-.52-.07-.78-.08-.75,0-1.48,0-2.21,0h-.87a25.86,25.86,0,0,0-2.82.33c-.15,0-.29.08-.44.1l-.82.19c-.45.11-.92.19-1.36.32s-.81.28-1.21.42l-.79.28-.46.16a22.06,22.06,0,0,0-2.34,1.15l-.25.14-243.56,141.54.08,0C1046.54,2227.12,1041.32,2237.48,1041.28,2252.23Zm48.69-25.51c-.61-.38-1.21-.76-1.83-1.11C1088.76,2226,1089.36,2226.33,1090,2226.72Zm44.18,86.05c-.05.38-.09.77-.14,1.15C1134.06,2313.54,1134.1,2313.15,1134.15,2312.77Zm-.84,4.77c-.08.35-.15.71-.24,1.06C1133.16,2318.25,1133.23,2317.89,1133.31,2317.54Zm.47-2.31c-.06.36-.12.73-.19,1.08C1133.66,2316,1133.72,2315.59,1133.78,2315.23Zm-1,4.5c-.1.35-.19.71-.3,1.05C1132.55,2320.44,1132.64,2320.08,1132.74,2319.73Zm-1.47,4.11c-.13.32-.26.64-.4.95C1131,2324.48,1131.14,2324.16,1131.27,2323.84Zm.79-2c-.12.33-.23.68-.36,1C1131.83,2322.52,1131.94,2322.17,1132.06,2321.84Zm-2.65,5.65c-.17.28-.33.57-.51.85C1129.08,2328.06,1129.24,2327.77,1129.41,2327.49Zm1-1.77c-.15.3-.3.61-.46.9C1130.09,2326.33,1130.24,2326,1130.39,2325.72Zm-3.21,4.94c-.2.25-.4.51-.61.75C1126.78,2331.17,1127,2330.91,1127.18,2330.66Zm1.16-1.53c-.18.27-.37.54-.56.8C1128,2329.67,1128.16,2329.4,1128.34,2329.13Zm-3.75,4.23c-.23.21-.46.43-.71.62C1124.13,2333.79,1124.36,2333.57,1124.59,2333.36Zm9.94-29.39c0,.69,0,1.37,0,2.05C1134.57,2305.34,1134.55,2304.66,1134.53,2304Zm-.13,6.21c0,.41-.05.83-.09,1.23C1134.35,2311,1134.37,2310.59,1134.4,2310.18Zm.14-3.1c0,.58,0,1.16,0,1.72C1134.52,2308.24,1134.53,2307.66,1134.54,2307.08Zm-9.27,25.68.66-.69Zm-2.85,2.32c.26-.17.5-.37.75-.56C1122.92,2334.71,1122.68,2334.91,1122.42,2335.08Zm-36.08-110.46c.57.3,1.15.61,1.72.94C1087.49,2225.23,1086.91,2224.92,1086.34,2224.62Z"/><path class="cls-5" d="M1700.29,1170l227,134.52a25.46,25.46,0,0,1,12.64,22v283.29c0,10.85-23.9,24.58-33.28,19.12L1695,1489.26a22.14,22.14,0,0,1-11-19.13L1667,1183.32C1667,1175,1693.05,1165.77,1700.29,1170Z"/><path class="cls-20" d="M1682.51,1178.14l227,134.53a25.45,25.45,0,0,1,12.63,22v283.29a14.06,14.06,0,0,1-21.14,12.15L1677.2,1497.42a22.14,22.14,0,0,1-11-19.13V1187.52A10.85,10.85,0,0,1,1682.51,1178.14Z"/><g class="cls-21"><polygon class="cls-22" points="1723.1 1285.41 1723.1 1301.51 1865.2 1384.47 1865.2 1368.37 1723.1 1285.41"/><polygon class="cls-22" points="1723.1 1331.87 1723.1 1347.97 1865.2 1430.34 1865.2 1414.24 1723.1 1331.87"/><polygon class="cls-22" points="1723.1 1378.33 1723.1 1394.43 1865.2 1476.81 1865.2 1460.7 1723.1 1378.33"/><polygon class="cls-22" points="1723.1 1424.79 1723.1 1440.9 1865.2 1523.27 1865.2 1507.16 1723.1 1424.79"/></g><path class="cls-4" d="M1032.45,501.26,1507,777.64a31.33,31.33,0,0,1,15.56,27.07v896.12c0,13.36-36.69,30.14-48.23,23.42L1025.9,1441.69a27.24,27.24,0,0,1-13.53-23.54l-22.2-896.89C990.17,511,1023.54,496.07,1032.45,501.26Z"/><path class="cls-6" d="M990.15,521.28v905.3a27.26,27.26,0,0,0,13.57,23.55l470.64,274.11a17.29,17.29,0,0,0,26-15V813.15a31.19,31.19,0,0,0-15.57-27L1010.26,509.7A13.38,13.38,0,0,0,990.15,521.28Z"/><path class="cls-23" d="M1306.11,823.36l139.46,82.42c2.91,1.72,5.3.74,5.3-2.17h0c0-2.91-2.39-6.7-5.3-8.43l-139.46-82.41c-2.91-1.72-5.29-.75-5.29,2.16h0C1300.82,817.85,1303.2,821.64,1306.11,823.36Z"/><path class="cls-24" d="M1354.84,878.63l90.73,53.62c2.91,1.73,5.3.75,5.3-2.16h0c0-2.91-2.39-6.71-5.3-8.43L1354.84,868c-2.91-1.72-5.3-.74-5.3,2.17h0C1349.54,873.12,1351.93,876.91,1354.84,878.63Z"/><path class="cls-8" d="M1267.38,827l66.06,39c2.91,1.72,5.3.74,5.3-2.17h0c0-2.91-2.39-6.7-5.3-8.42l-66.06-39c-2.91-1.72-5.3-.74-5.3,2.17h0C1262.08,821.43,1264.47,825.22,1267.38,827Z"/><path class="cls-24" d="M1301.22,896.37l106.43,62.9c2.91,1.72,5.3.75,5.3-2.17h0c0-2.91-2.39-6.7-5.3-8.42l-106.43-62.9c-2.91-1.72-5.29-.75-5.29,2.17h0C1295.93,890.86,1298.31,894.65,1301.22,896.37Z"/><path class="cls-23" d="M1171.15,819.5l106.43,62.9c2.91,1.72,5.3.75,5.3-2.16h0c0-2.92-2.39-6.71-5.3-8.43l-106.43-62.9c-2.91-1.72-5.29-.74-5.29,2.17h0C1165.86,814,1168.24,817.78,1171.15,819.5Z"/><path class="cls-23" d="M1330.11,939.48l77.54,45.83c2.91,1.72,5.3.74,5.3-2.17h0c0-2.91-2.39-6.7-5.3-8.42l-77.54-45.83c-2.91-1.72-5.29-.74-5.29,2.17h0C1324.82,934,1327.2,937.76,1330.11,939.48Z"/><path class="cls-24" d="M1213.89,870.8l92.58,54.71c2.92,1.73,5.3.75,5.3-2.16h0c0-2.91-2.38-6.71-5.3-8.43l-92.58-54.71c-2.92-1.73-5.3-.75-5.3,2.16h0C1208.59,865.28,1211,869.08,1213.89,870.8Z"/><path class="cls-24" d="M1094.77,800.4l92.58,54.72c2.92,1.72,5.3.74,5.3-2.17h0c0-2.91-2.38-6.7-5.3-8.43l-92.58-54.71c-2.92-1.72-5.3-.75-5.3,2.16h0C1089.47,794.89,1091.85,798.68,1094.77,800.4Z"/><path class="cls-24" d="M1345.94,1050.36l106.43,62.89c2.91,1.72,5.29.75,5.29-2.16h0c0-2.92-2.38-6.71-5.29-8.43l-106.43-62.9c-2.91-1.72-5.3-.74-5.3,2.17h0C1340.64,1044.84,1343,1048.63,1345.94,1050.36Z"/><path class="cls-24" d="M1215.87,973.49l106.43,62.9c2.91,1.72,5.29.74,5.29-2.17h0c0-2.91-2.38-6.71-5.29-8.43L1215.87,962.9c-2.91-1.73-5.3-.75-5.3,2.16h0C1210.57,968,1213,971.77,1215.87,973.49Z"/><path class="cls-24" d="M1374.83,1093.47l77.54,45.82c2.91,1.72,5.29.75,5.29-2.17h0c0-2.91-2.38-6.7-5.29-8.42l-77.54-45.82c-2.91-1.72-5.29-.75-5.29,2.16h0C1369.54,1088,1371.92,1091.75,1374.83,1093.47Z"/><path class="cls-8" d="M1258.6,1024.78l92.59,54.72c2.91,1.72,5.3.74,5.3-2.17h0c0-2.91-2.39-6.7-5.3-8.42l-92.59-54.72c-2.91-1.72-5.29-.75-5.29,2.16h0C1253.31,1019.27,1255.69,1023.06,1258.6,1024.78Z"/><path class="cls-24" d="M1304,1127.07,1410.4,1190c2.91,1.72,5.3.75,5.3-2.17h0c0-2.91-2.39-6.7-5.3-8.42L1304,1116.48c-2.91-1.72-5.29-.75-5.29,2.17h0C1298.68,1121.56,1301.06,1125.35,1304,1127.07Z"/><path class="cls-24" d="M1044.67,973.83l106.43,62.9c2.92,1.72,5.3.75,5.3-2.17h0c0-2.91-2.38-6.7-5.3-8.42l-106.43-62.9c-2.91-1.72-5.29-.75-5.29,2.17h0C1039.38,968.32,1041.76,972.11,1044.67,973.83Z"/><path class="cls-24" d="M1173.9,1050.2l106.43,62.9c2.91,1.72,5.3.75,5.3-2.16h0c0-2.92-2.39-6.71-5.3-8.43l-106.43-62.9c-2.91-1.72-5.29-.74-5.29,2.17h0C1168.61,1044.69,1171,1048.48,1173.9,1050.2Z"/><path class="cls-24" d="M1332.86,1170.18,1410.4,1216c2.91,1.72,5.3.74,5.3-2.17h0c0-2.91-2.39-6.7-5.3-8.42l-77.54-45.83c-2.91-1.72-5.29-.74-5.29,2.17h0C1327.57,1164.67,1330,1168.46,1332.86,1170.18Z"/><path class="cls-24" d="M1216.64,1101.5l92.58,54.71c2.92,1.73,5.3.75,5.3-2.16h0c0-2.91-2.38-6.71-5.3-8.43l-92.58-54.72c-2.92-1.72-5.3-.74-5.3,2.17h0C1211.34,1096,1213.72,1099.77,1216.64,1101.5Z"/><path class="cls-23" d="M1093.73,1028.86l92.59,54.72c2.91,1.72,5.3.75,5.3-2.17h0c0-2.91-2.39-6.7-5.3-8.42l-92.59-54.72c-2.91-1.72-5.29-.75-5.29,2.17h0C1088.44,1023.35,1090.82,1027.14,1093.73,1028.86Z"/><path class="cls-23" d="M1139.48,954.38l92.59,54.72c2.91,1.72,5.3.75,5.3-2.17h0c0-2.91-2.39-6.7-5.3-8.42l-92.59-54.72c-2.91-1.72-5.29-.75-5.29,2.17h0C1134.19,948.87,1136.57,952.66,1139.48,954.38Z"/><path class="cls-8" d="M1260.59,1153.51l106.43,62.9c2.91,1.72,5.29.74,5.29-2.17h0c0-2.91-2.38-6.71-5.29-8.43l-106.43-62.89c-2.92-1.73-5.3-.75-5.3,2.16h0C1255.29,1148,1257.67,1151.79,1260.59,1153.51Z"/><path class="cls-24" d="M1130.52,1076.64l106.43,62.9c2.91,1.72,5.29.74,5.29-2.17h0c0-2.91-2.38-6.7-5.29-8.42l-106.43-62.9c-2.91-1.72-5.3-.75-5.3,2.16h0C1125.22,1071.13,1127.61,1074.92,1130.52,1076.64Z"/><path class="cls-23" d="M1289.48,1196.62l77.54,45.82c2.91,1.72,5.29.75,5.29-2.16h0c0-2.92-2.38-6.71-5.29-8.43L1289.48,1186c-2.91-1.72-5.3-.75-5.3,2.16h0C1284.18,1191.11,1286.57,1194.9,1289.48,1196.62Z"/><path class="cls-24" d="M1173.25,1127.93l92.59,54.72c2.91,1.72,5.3.75,5.3-2.17h0c0-2.91-2.39-6.7-5.3-8.42l-92.59-54.72c-2.91-1.72-5.29-.75-5.29,2.17h0C1168,1122.42,1170.34,1126.21,1173.25,1127.93Z"/><path class="cls-23" d="M1054.13,1057.53l92.59,54.72c2.91,1.72,5.3.75,5.3-2.17h0c0-2.91-2.39-6.7-5.3-8.42l-92.59-54.72c-2.91-1.72-5.29-.75-5.29,2.17h0C1048.84,1052,1051.22,1055.81,1054.13,1057.53Z"/><path class="cls-24" d="M1403.16,930.58l42.41,25.06c2.91,1.72,5.3.75,5.3-2.16h0c0-2.92-2.39-6.71-5.3-8.43L1403.16,920c-2.92-1.73-5.3-.75-5.3,2.16h0C1397.86,925.06,1400.24,928.86,1403.16,930.58Z"/><path class="cls-8" d="M1403.16,1008.69l42.41,25.06c2.91,1.73,5.3.75,5.3-2.16h0c0-2.91-2.39-6.71-5.3-8.43l-42.41-25.06c-2.92-1.72-5.3-.75-5.3,2.16h0C1397.86,1003.18,1400.24,1007,1403.16,1008.69Z"/><path class="cls-24" d="M1403.16,1034.73l42.41,25.06c2.91,1.72,5.3.75,5.3-2.16h0c0-2.92-2.39-6.71-5.3-8.43l-42.41-25.07c-2.92-1.72-5.3-.74-5.3,2.17h0C1397.86,1029.21,1400.24,1033,1403.16,1034.73Z"/><path class="cls-23" d="M1403.16,1159.65l42.41,25.07c2.91,1.72,5.3.74,5.3-2.17h0c0-2.91-2.39-6.7-5.3-8.42l-42.41-25.07c-2.92-1.72-5.3-.75-5.3,2.17h0C1397.86,1154.14,1400.24,1157.93,1403.16,1159.65Z"/><path class="cls-24" d="M1304,1271.64l106.43,62.9c2.91,1.72,5.3.75,5.3-2.16h0c0-2.92-2.39-6.71-5.3-8.43L1304,1261.05c-2.91-1.72-5.29-.74-5.29,2.17h0C1298.68,1266.13,1301.06,1269.92,1304,1271.64Z"/><path class="cls-24" d="M1044.67,1118.4l106.43,62.9c2.92,1.72,5.3.75,5.3-2.16h0c0-2.92-2.38-6.71-5.3-8.43l-106.43-62.9c-2.91-1.72-5.29-.74-5.29,2.17h0C1039.38,1112.89,1041.76,1116.68,1044.67,1118.4Z"/><path class="cls-24" d="M1173.9,1194.78l106.43,62.89c2.91,1.73,5.3.75,5.3-2.16h0c0-2.91-2.39-6.71-5.3-8.43l-106.43-62.89c-2.91-1.73-5.29-.75-5.29,2.16h0C1168.61,1189.26,1171,1193.06,1173.9,1194.78Z"/><path class="cls-24" d="M1332.86,1314.76l77.54,45.82c2.91,1.72,5.3.75,5.3-2.17h0c0-2.91-2.39-6.7-5.3-8.42l-77.54-45.82c-2.91-1.73-5.29-.75-5.29,2.16h0C1327.57,1309.24,1330,1313,1332.86,1314.76Z"/><path class="cls-24" d="M1216.64,1246.07l92.58,54.72c2.92,1.72,5.3.74,5.3-2.17h0c0-2.91-2.38-6.7-5.3-8.42l-92.58-54.72c-2.92-1.72-5.3-.75-5.3,2.16h0C1211.34,1240.56,1213.72,1244.35,1216.64,1246.07Z"/><path class="cls-23" d="M1093.73,1173.43l92.59,54.72c2.91,1.72,5.3.75,5.3-2.16h0c0-2.92-2.39-6.71-5.3-8.43l-92.59-54.72c-2.91-1.72-5.29-.74-5.29,2.17h0C1088.44,1167.92,1090.82,1171.71,1093.73,1173.43Z"/><path class="cls-8" d="M1260.59,1298.08,1367,1361c2.91,1.72,5.29.74,5.29-2.17h0c0-2.91-2.38-6.7-5.29-8.42l-106.43-62.9c-2.92-1.72-5.3-.75-5.3,2.16h0C1255.29,1292.57,1257.67,1296.36,1260.59,1298.08Z"/><path class="cls-24" d="M1130.52,1221.21l106.43,62.9c2.91,1.72,5.29.75,5.29-2.17h0c0-2.91-2.38-6.7-5.29-8.42l-106.43-62.9c-2.91-1.72-5.3-.75-5.3,2.17h0C1125.22,1215.7,1127.61,1219.49,1130.52,1221.21Z"/><path class="cls-23" d="M1289.48,1341.19,1367,1387c2.91,1.72,5.29.74,5.29-2.17h0c0-2.91-2.38-6.7-5.29-8.43l-77.54-45.82c-2.91-1.72-5.3-.75-5.3,2.17h0C1284.18,1335.68,1286.57,1339.47,1289.48,1341.19Z"/><path class="cls-24" d="M1173.25,1272.5l92.59,54.72c2.91,1.72,5.3.75,5.3-2.16h0c0-2.92-2.39-6.71-5.3-8.43l-92.59-54.72c-2.91-1.72-5.29-.74-5.29,2.17h0C1168,1267,1170.34,1270.78,1173.25,1272.5Z"/><path class="cls-23" d="M1054.13,1202.11l92.59,54.71c2.91,1.72,5.3.75,5.3-2.16h0c0-2.92-2.39-6.71-5.3-8.43l-92.59-54.72c-2.91-1.72-5.29-.74-5.29,2.17h0C1048.84,1196.59,1051.22,1200.38,1054.13,1202.11Z"/><path class="cls-23" d="M1403.16,1304.22l42.41,25.07c2.91,1.72,5.3.75,5.3-2.17h0c0-2.91-2.39-6.7-5.3-8.42l-42.41-25.07c-2.92-1.72-5.3-.74-5.3,2.17h0C1397.86,1298.71,1400.24,1302.5,1403.16,1304.22Z"/><path class="cls-8" d="M1403.16,1473.07l42.41,25.06c2.91,1.73,5.3.75,5.3-2.16h0c0-2.91-2.39-6.71-5.3-8.43l-42.41-25.06c-2.92-1.72-5.3-.75-5.3,2.16h0C1397.86,1467.56,1400.24,1471.35,1403.16,1473.07Z"/><path class="cls-23" d="M1403.16,1523.72l42.41,25.07c2.91,1.72,5.3.75,5.3-2.17h0c0-2.91-2.39-6.7-5.3-8.42l-42.41-25.07c-2.92-1.72-5.3-.74-5.3,2.17h0C1397.86,1518.21,1400.24,1522,1403.16,1523.72Z"/><path class="cls-24" d="M1403.16,1545.52l42.41,25.07c2.91,1.72,5.3.75,5.3-2.16h0c0-2.92-2.39-6.71-5.3-8.43l-42.41-25.07c-2.92-1.72-5.3-.74-5.3,2.17h0C1397.86,1540,1400.24,1543.8,1403.16,1545.52Z"/><path class="cls-8" d="M990.15,521.28v38.61l510.21,294.72V813.15a31.19,31.19,0,0,0-15.57-27L1010.26,509.7A13.38,13.38,0,0,0,990.15,521.28Z"/><path class="cls-25" d="M1394.73,1942.81a29.68,29.68,0,0,0,.24,4.61c4.14,70.83,104.88,127.59,228.8,127.59,126.4,0,229-59.24,229-132.2a77.73,77.73,0,0,0-1-11.93,73.85,73.85,0,0,0,0-23.86,77.73,77.73,0,0,0,1-11.93c0-73-102.63-132.19-229-132.19s-229,59.23-229,132.19Zm54.63-23.86c18.68-45.61,89.64-79.6,174.41-79.6s155.71,34,174.4,79.6c-18.69,45.61-89.71,79.6-174.4,79.6S1468,1964.56,1449.36,1919Z"/><path class="cls-3" d="M1394.73,1881a30.07,30.07,0,0,0,.24,4.64c4.16,70.81,104.87,127.6,228.78,127.6,126.43,0,229.06-59.27,229.06-132.24s-102.63-132.18-229.06-132.18S1394.73,1808.1,1394.73,1881Zm49.77,0c0-57.06,80.27-103.42,179.25-103.42S1803,1824,1803,1881a58.47,58.47,0,0,1-.61,8.61c-7.62,53.09-84.76,94.86-178.68,94.86-94.16,0-171.25-41.86-178.59-95-.23-1.54-.37-3.18-.47-4.77A23.44,23.44,0,0,1,1444.5,1881Z"/><path class="cls-26" d="M1304.12,2107.15c-.12-.84-.27-1.68-.43-2.52-.11-.58-.21-1.15-.34-1.72s-.26-1.08-.4-1.62c-.19-.75-.38-1.5-.6-2.25-.12-.43-.26-.87-.39-1.3-.27-.84-.55-1.68-.85-2.52-.12-.35-.24-.7-.37-1-.44-1.16-.9-2.32-1.4-3.47,0-.12-.11-.24-.17-.36-.46-1-.94-2.07-1.45-3.09l-.48-.93c-.49-1-1-1.91-1.54-2.85l-.3-.55c-.64-1.1-1.3-2.17-2-3.23-.2-.31-.41-.61-.61-.91-.51-.76-1-1.52-1.56-2.26-.29-.4-.58-.79-.88-1.18-.47-.62-.94-1.23-1.43-1.83s-.81-1-1.22-1.49-.8-.91-1.2-1.36c-.69-.76-1.39-1.51-2.1-2.24l-1.05-1a57.52,57.52,0,0,0-4.44-3.91l-.82-.61a47.81,47.81,0,0,0-4.92-3.33,37.46,37.46,0,0,0-4-2c-.42-.18-.83-.34-1.24-.5-.75-.29-1.5-.55-2.23-.77-.47-.14-.94-.28-1.4-.39s-.87-.2-1.29-.28-1.13-.19-1.67-.25c-.32,0-.64-.08-1-.1a19.62,19.62,0,0,0-2,0c-.16,0-.32,0-.47,0a17.44,17.44,0,0,0-2.33.3c-.19,0-.37.08-.56.12a17.35,17.35,0,0,0-1.74.51l-.53.18a14.55,14.55,0,0,0-2.07,1l164.84-95.8.17-.09a14.64,14.64,0,0,1,1.59-.78l.31-.11.53-.19.82-.29c.3-.08.61-.14.92-.21l.56-.13.29-.07c.63-.1,1.26-.18,1.91-.22h.59a15,15,0,0,1,1.5,0c.17,0,.35,0,.52,0s.63.06,1,.09.58,0,.88.09.53.12.79.17c.43.08.86.17,1.3.28.23.05.46.08.69.14s.47.18.71.25c.73.22,1.47.48,2.23.77.26.1.51.16.78.27s.3.16.45.22a37.61,37.61,0,0,1,4,2,47.93,47.93,0,0,1,4.93,3.33l.81.61a55.8,55.8,0,0,1,4.44,3.9c.13.12.26.21.38.33s.44.49.67.72c.72.73,1.42,1.47,2.11,2.24.22.25.45.47.67.72s.35.43.52.64c.42.49.83,1,1.24,1.5.26.33.54.64.8,1s.41.55.61.83.59.79.88,1.19.41.54.61.82c.33.47.64,1,1,1.43.21.31.42.61.62.92l.25.38c.56.88,1.11,1.77,1.63,2.67a1.62,1.62,0,0,1,.1.18c.11.18.21.36.31.55.36.64.73,1.27,1.07,1.92.16.31.31.62.47.92s.32.62.47.94.29.55.42.83c.36.74.7,1.49,1,2.24l.18.39,0,.1c.4.94.79,1.89,1.15,2.83.07.18.13.35.19.53.13.35.25.7.38,1s.35.94.5,1.41.23.75.34,1.12.27.87.4,1.3c.08.27.17.53.24.8.14.48.24,1,.36,1.45s.28,1.08.4,1.61c0,.19.09.38.13.56.09.39.13.78.2,1.17.16.84.32,1.68.44,2.52,0,.23.08.46.12.69s0,.43,0,.65a47.54,47.54,0,0,1,.36,5.54c0,10-3.54,17-9.21,20.25l-164.83,95.79c5.66-3.29,9.17-10.3,9.2-20.25a45.57,45.57,0,0,0-.36-5.54C1304.23,2108,1304.18,2107.6,1304.12,2107.15Z"/><path class="cls-27" d="M1273.18,2059.53c-17.44-10.07-31.62-2-31.67,18s14,44.43,31.46,54.5,31.62,2,31.67-18S1290.62,2069.6,1273.18,2059.53Z"/><path class="cls-3" d="M1089.64,2252.52c-.18-1.24-.4-2.48-.64-3.73-.16-.85-.31-1.69-.5-2.54s-.38-1.59-.58-2.39c-.28-1.1-.56-2.21-.89-3.32-.18-.64-.38-1.28-.58-1.93-.39-1.24-.81-2.48-1.25-3.72-.19-.52-.36-1-.56-1.55-.64-1.71-1.32-3.43-2.06-5.12l-.25-.54c-.68-1.53-1.4-3.06-2.15-4.57-.23-.46-.46-.92-.7-1.38-.73-1.41-1.49-2.82-2.28-4.21-.15-.26-.29-.54-.44-.8-.94-1.62-1.93-3.21-2.94-4.78l-.9-1.34q-1.12-1.7-2.31-3.33c-.43-.59-.86-1.18-1.3-1.76-.69-.91-1.39-1.8-2.1-2.69s-1.2-1.48-1.81-2.2-1.18-1.35-1.78-2q-1.51-1.71-3.11-3.31c-.51-.53-1-1-1.55-1.55a86,86,0,0,0-6.56-5.77c-.39-.31-.8-.6-1.2-.9a69.85,69.85,0,0,0-7.27-4.92,57.12,57.12,0,0,0-5.87-2.92c-.62-.27-1.22-.5-1.83-.73-1.11-.43-2.21-.81-3.29-1.14-.7-.21-1.39-.41-2.07-.58s-1.28-.29-1.91-.41c-.84-.15-1.66-.28-2.47-.38l-1.4-.14c-1-.07-2-.09-3-.06h-.7a27.56,27.56,0,0,0-3.45.43l-.81.19a24.64,24.64,0,0,0-2.58.74l-.78.28a23.12,23.12,0,0,0-3.06,1.45l243.56-141.53.25-.15a20.22,20.22,0,0,1,2.34-1.14c.15-.07.31-.11.46-.17s.53-.18.79-.27.8-.31,1.21-.43.91-.21,1.36-.32c.27-.06.54-.13.82-.18l.44-.11a25.86,25.86,0,0,1,2.82-.33h.87c.73,0,1.46,0,2.21,0,.26,0,.52.06.78.08.46,0,.93.08,1.4.14s.86.06,1.3.13.78.17,1.17.25c.63.12,1.26.25,1.91.41.34.08.68.12,1,.22s.7.25,1,.36c1.08.32,2.18.7,3.29,1.13.39.15.76.24,1.16.4.22.09.45.24.67.33a57.14,57.14,0,0,1,5.87,2.92,71.45,71.45,0,0,1,7.27,4.92c.4.3.81.59,1.21.9q3.38,2.67,6.56,5.77c.18.18.37.31.55.49.34.34.66.72,1,1.06,1,1.07,2.09,2.18,3.1,3.31.33.36.68.69,1,1.06s.51.64.77.95c.62.72,1.22,1.46,1.82,2.21.4.49.81.95,1.19,1.45s.6.82.91,1.23c.44.58.87,1.17,1.3,1.76.29.41.6.8.89,1.21.49.69.94,1.41,1.41,2.11.31.45.62.9.91,1.36.13.19.26.37.38.56q1.24,2,2.41,3.94l.15.27.45.81c.54,1,1.08,1.89,1.59,2.85l.68,1.35c.24.46.47.92.7,1.39s.43.81.62,1.22c.53,1.1,1,2.21,1.52,3.32.09.19.18.38.26.57s0,.1.08.16c.6,1.38,1.17,2.78,1.71,4.18l.27.78c.2.51.37,1,.56,1.54.25.69.51,1.39.75,2.08s.33,1.1.5,1.65.4,1.28.59,1.92c.11.4.25.79.36,1.18.19.72.34,1.43.52,2.15s.41,1.59.59,2.38c.06.28.14.55.2.83.12.57.18,1.14.29,1.72.24,1.24.47,2.48.64,3.72,0,.34.13.69.18,1s0,.63.06.95a69.33,69.33,0,0,1,.54,8.18c0,14.72-5.23,25.06-13.61,29.93L1076.81,2292.6c8.37-4.86,13.56-15.21,13.6-29.92a69.46,69.46,0,0,0-.53-8.19C1089.8,2253.84,1089.74,2253.18,1089.64,2252.52Z"/><path class="cls-26" d="M1043.93,2182.16c-25.77-14.88-46.71-2.95-46.8,26.66s20.72,65.65,46.49,80.53,46.71,2.94,46.79-26.67S1069.69,2197,1043.93,2182.16Z"/><path class="cls-28" d="M1445.16,1889.44c7.34,53.19,84.43,95,178.59,95,93.92,0,171.06-41.77,178.68-94.86-7.62-53.09-84.76-94.86-178.68-94.86S1452.88,1836.45,1445.16,1889.44Z"/><path class="cls-5" d="M251.6,661.64,684.53,923.21a34.37,34.37,0,0,1,17.08,29.71v478.86c0,14.66-32.3,33.23-45,25.85L244.41,1189.15a29.91,29.91,0,0,1-14.86-25.85L206.66,679.67C206.66,668.35,241.82,656,251.6,661.64Z"/><path class="cls-20" d="M227.58,672.67,660.51,934.24A34.36,34.36,0,0,1,677.59,964v478.86A19,19,0,0,1,649,1459.23l-428.63-259a29.93,29.93,0,0,1-14.86-25.85v-489A14.67,14.67,0,0,1,227.58,672.67Z"/><g class="cls-21"><polygon class="cls-22" points="258.29 799.16 258.29 812.22 499.66 959.21 499.66 946.15 258.29 799.16"/><polygon class="cls-22" points="258.29 836.84 258.29 849.89 499.66 996.4 499.66 983.35 258.29 836.84"/><polygon class="cls-22" points="258.29 874.5 258.29 887.56 499.66 1034.07 499.66 1021.01 258.29 874.5"/><polygon class="cls-22" points="258.29 912.17 258.29 925.23 499.66 1071.74 499.66 1058.68 258.29 912.17"/></g><g class="cls-21"><polygon class="cls-22" points="258.29 1015.36 258.29 1028.41 585.08 1225.27 585.08 1212.22 258.29 1015.36"/><polygon class="cls-22" points="258.29 1053.03 258.29 1066.09 614.43 1279.38 614.43 1266.32 258.29 1053.03"/><polygon class="cls-22" points="258.29 1090.7 258.29 1103.76 614.43 1317.05 614.43 1303.99 258.29 1090.7"/><polygon class="cls-22" points="258.29 1128.37 258.29 1141.42 614.43 1354.72 614.43 1341.66 258.29 1128.37"/></g><polygon class="cls-8" points="635.11 1021.49 635.11 1147.08 519.9 1080.3 519.9 954.23 635.11 1021.49"/><polygon class="cls-29" points="459.32 1479.73 512.62 1373.66 548.25 1381.79 484.34 1541.06 459.32 1479.73"/><path class="cls-8" d="M291.26,1661.66l711-490.48a.47.47,0,0,1,.08-.15c.93-2.08,13-29.36,7.47-63.46a111.5,111.5,0,0,0-23.41-52c-10.3-12.93-20.48-22.45-30.17-29.31-24.58-17.51-46.08-18.29-59.41-16a51.37,51.37,0,0,0-14.16,4.3l-711,490.53Z"/><path class="cls-30" d="M465.23,1472.14,1007,1095c-2.69-16.42-6.6-21.84-20.58-39.4-10.3-12.93-20.48-22.45-30.17-29.31L442.06,1380Z"/><path class="cls-31" d="M164.37,1634.51c-33.74-44.64-36.76-99.22-6.75-121.91a46.77,46.77,0,0,1,10.43-5.84l0-.06,192.72-133.92c30-22.69,81.7-4.9,115.45,39.74s36.76,99.22,6.75,121.91a46.08,46.08,0,0,1-4.33,2.78l0,.06-198.82,137C249.8,1696.93,198.12,1679.14,164.37,1634.51Z"/><ellipse class="cls-32" cx="218.72" cy="1593.42" rx="58.17" ry="86.5" transform="translate(-916.65 454.22) rotate(-37.09)"/><path class="cls-33" d="M1002.33,1171l120.09-206.46-227.84,42.29,2.23,3.38c13.33-2.25,34.83-1.47,59.41,16,9.69,6.86,19.87,16.38,30.17,29.31a111.5,111.5,0,0,1,23.41,52C1015.32,1141.67,1003.26,1169,1002.33,1171Z"/><path class="cls-34" d="M415.62,1454.34C385.86,1415,342.37,1396.2,311.47,1407l49.26-34.23c30-22.69,81.7-4.9,115.45,39.74s36.76,99.22,6.75,121.91a46.08,46.08,0,0,1-4.33,2.78l0,.06-48.44,33.37C452,1544.55,446.63,1495.35,415.62,1454.34Z"/></g></g></svg>